<svg width="1121" height="1281" viewBox="0 0 1121 1281" fill="none" xmlns="http://www.w3.org/2000/svg">
<path d="M679 0.70003C633.7 2.60003 618.1 3.40003 586.5 5.00003C566.2 6.10003 530.4 7.70003 507 8.50003C483.6 9.30003 458.9 10.5 452 11C418.9 13.8 406.1 20.1 401.2 36C399.7 40.8 399.5 46.7 399.5 85C399.6 127 399.7 129.5 402.8 158.9C404.6 175.6 406.2 189.6 406.5 189.9C406.7 190.3 407.6 201.4 408.5 214.6C409.4 227.7 410.5 241.6 410.9 245.3L411.6 252.1L408.8 251.5C406.6 251 406 251.2 406 252.5C406 253.4 406.7 254.8 407.5 255.6C408.4 256.5 409 258.9 409 261.3C409 263.6 409.9 277.2 411.1 291.5C413.5 320.6 413.2 327.2 408.6 334C407.2 336.1 400.5 342.4 393.7 347.8C386.7 353.5 373.9 365.6 364.1 375.7C347.2 393.3 346.6 393.8 334.7 400.5C311.8 413.2 304.6 419.1 299.7 429.4C298.1 432.6 294.4 444.7 291.4 456.4C286.5 475.6 285.2 479.1 277.6 495C273 504.6 268.7 514.1 268.1 516.1C266.5 520.9 265.1 530 265.9 530C266.2 530 273.5 514.2 281.9 495C290.4 475.7 297.6 460 297.8 460C298.1 460 298 463.4 297.6 467.6C296.8 476.4 298 476.8 300.6 468.7C301.7 465.3 302.4 459.3 302.6 451.5C302.7 444.9 302.8 438.7 302.9 437.7C303.1 433.4 310.9 427.3 326.1 419.5C343.3 410.7 350.8 405.1 366.8 388.6L378.1 377.1L376.6 374.2C375.1 371.4 375.2 371.3 379.3 367.8C381.7 365.9 384.7 362.6 386 360.6C389 356.3 390.9 355.5 397.2 355.9C401 356.1 403 355.6 407.3 353.1C410.3 351.4 413.1 350 413.6 350C414.1 350 414.6 351.7 414.7 353.8C414.9 356.9 414.4 357.9 411.7 360.2L408.5 362.9L413.4 363H418.3L417.5 367.7C417.1 370.4 416.5 397.1 416.1 427.2C415.8 457.2 415.2 482.1 414.9 482.4C413.9 483.4 406.3 477.8 404.5 474.7C403.4 472.8 402.5 468.8 402.2 464.4C401.8 457.9 401.4 456.8 398.9 454.5C396 452 395.2 450 396.9 450C397.4 450 397.6 449.1 397.3 448C396.6 445.4 395.4 446.2 391.9 451.8C389.6 455.4 389 457.6 389 461.7C389 468.9 391.7 474 402.9 487.5C407.9 493.5 412 499.2 412 500.3C412 501.3 410.6 503.5 408.9 505.2C406.1 508 406.1 508.2 408.2 507.6C409.5 507.2 413.5 506.7 417.1 506.3C423 505.8 424.4 506 429.4 508.5C435.1 511.3 435.1 511.3 451.3 510.7C485.3 509.6 500.2 504.8 565.3 474.4C609.6 453.7 625.1 447.6 640.4 444.9C648.4 443.6 655.1 444.4 652.9 446.5C651.2 448.1 639.3 453.2 629.6 456.6C625.2 458.1 617.5 462.4 608.8 468.2C593.1 478.6 593.1 478.7 595 490.3C598 509 606.2 518.8 620.8 520.8C626.4 521.6 632.1 524.2 630.3 525.3C629.9 525.6 626.6 526.7 623 527.8C588.4 538.6 564.5 546.2 564.1 546.5C563.9 546.8 565 547.4 566.6 548C572.8 550.3 572.6 550.1 570.2 551.1C564.3 553.4 549.8 554.1 533.2 553C506 551.2 492.9 554.4 474.5 567.5C461.5 576.7 455.9 585.2 455.3 597C455 601.1 454.1 606.4 453.3 608.7C452.5 611 451.9 613.3 452.1 613.9C452.3 614.4 454.9 613.2 457.9 611.2C462.5 608.1 463.6 606.8 464.7 602.8C465.6 599.7 467.1 597.4 469.1 595.8C473.3 592.8 480.4 585.9 481.6 583.9C482.6 582.1 499 575.7 506.8 574.1C513.1 572.8 520.8 572.6 519.4 573.9C518.9 574.3 511.2 578 502.3 582.1C493.4 586.1 486.2 589.5 486.4 589.7C486.5 589.8 494.5 587.7 504.1 585C513.7 582.2 521.9 580 522.5 580C523 580 504.2 590.3 480.6 603C457 615.6 437.5 625.8 437.3 625.6C436.6 624.9 442.4 620 443.9 620C444.8 620 446.1 619.6 446.8 619.1C447.9 618.4 447.7 617.8 445.8 615.8C444.6 614.5 443.1 612.6 442.5 611.7C441.6 610.1 440.3 610.3 427.7 614.6C416.2 618.4 414 619.5 414.6 620.9C417.4 627.7 417.5 628.1 416 629.1C414.9 629.8 415.5 629.9 418 629.4C422.9 628.4 426.9 628.7 428.6 630.1C430.7 631.9 430.4 632.5 426 634.5C420.2 637.1 420.1 638.1 425.8 636C428.4 635.1 432.5 634 434.9 633.6L439.2 632.9L435.9 637.1C432.1 641.9 424.3 648.3 418.8 651.1C416.7 652.2 410.6 654.2 405.2 655.6C395.9 658.1 390.5 660.5 388.1 663.4C387.2 664.4 389.1 664.3 397 663C408.9 661 408.9 661.7 396.9 668.6C389.3 673 382 679.2 383.8 679.8C384.7 680.1 388.2 678.9 397.8 675.1C400.6 674 403 673.4 403 673.8C403 676 397.2 682.5 392.3 685.7C389.2 687.8 386 690.5 385.2 691.8C383.7 694.1 383.7 694.1 386.3 692.9C387.8 692.2 389.2 691.9 389.4 692.1C390.4 693.1 387.7 702.9 385 708.2C383.3 711.4 382.2 714 382.5 714C382.8 714 385.4 710.2 388.4 705.6C392.8 698.8 396.3 695.1 401.9 691.3C402.1 691.2 401 689.4 399.5 687.4L396.8 683.8L399.6 680.8C403.2 677.1 413.1 669.9 418.5 667.3C420.7 666.2 424.9 664.7 427.8 663.9C436 661.9 433.7 658.8 425.4 660.7C423 661.3 421 661.5 421 661.3C421 658.7 455.7 632 459.1 632C460 632 459.7 634.2 458.3 639.3C458.1 640.2 456.5 641.7 454.9 642.5C453.3 643.4 450.8 646 449.3 648.3C447.8 650.6 442 657.3 436.3 663.1C429.2 670.4 425.3 675.3 423.6 679.1C420.7 685.5 419.4 691 420.8 691C421.3 691 424.6 689.1 428.1 686.8C436.6 681.1 451.7 666.1 457 658L461.2 651.5L460.6 657C459.6 664.9 456.7 670.7 450.7 676.9C445.6 682.1 445.5 682.2 448.6 681.6C451.7 680.9 451.7 680.9 451.7 685.4C451.8 689.5 451.4 690.2 446.7 694.7C443.8 697.4 439.9 700.8 438 702.4L434.5 705.2L438 703.2C442.8 700.4 449 698.8 449 700.3C449 701 447.7 704 446.2 707C444.3 710.9 442.4 713.1 439.8 714.5C436.6 716.2 436.2 716.8 436.7 719.5C437.8 726.2 431.5 735.5 420.5 743.8L417.5 746L422.9 744C425.8 742.8 428.4 742.1 428.6 742.3C429.2 742.9 421.3 754.5 418.4 757.2C416.8 758.7 409.9 762.6 403 765.8C392.5 770.8 382.1 777 384.2 777C384.5 777 390.7 774.1 398.1 770.6C405.5 767.1 411.6 764.6 411.8 765.1C412.5 766.9 407.4 774.5 403.4 777.5C399.3 780.6 375.8 791.5 365.2 795.1C359.3 797.1 354.4 797.5 352.2 796.1C351.2 795.5 352.4 794.3 356.3 791.7C359.3 789.7 363 787.6 364.5 787C367.9 785.7 376.2 780.9 375.8 780.4C375.6 780.3 372.1 781 368.1 782.1C364 783.1 360.4 783.8 360.1 783.5C359.9 783.2 360.6 781 361.7 778.7C363.7 774.6 364.6 774 380.4 766.2C389.5 761.8 397 757.9 397 757.7C397 757.5 392 759.3 385.9 761.7C379.8 764.2 374.7 766 374.4 765.7C373.7 765.1 379.8 753.9 382.3 751.2C383.4 750 386.6 748.3 389.3 747.5C394.3 746 401.5 742.1 400.7 741.3C400.4 741.1 395.2 742.4 389.1 744.3C383 746.2 378 747.6 378 747.3C378 746.4 382.1 741.1 385.1 738C387.6 735.6 388 734.5 387.5 732.1C386.5 727.6 392.8 720.4 408.6 708.3L411.5 706L408.7 707C404.9 708.3 405.1 708.5 403.3 704.3L401.8 700.5L398.6 704.2C396.9 706.2 393.1 712.5 390.1 718.2C387.1 723.8 381.2 733.2 377 739C369.2 749.5 363 759.1 363 760.4C363 760.8 365.9 759.1 369.5 756.5C373.1 754 376 752.3 376 752.7C376 753.1 374.3 756.9 372.2 761C369 767.3 367.6 769.1 362 773C357.7 776.1 355.2 778.6 354.5 780.7C353.1 784.9 352.1 785.9 339.9 795.6C327.4 805.3 316.5 811 303.9 814C295 816.1 285.3 816.7 288 815C288.8 814.5 291.8 813.3 294.5 812.4C297.3 811.5 300.4 810 301.5 809C302.6 808 305.1 806.7 307.1 806.1C317.8 802.7 346.7 780.5 356.6 768L360.9 762.6L357.9 761.3C356.3 760.7 355 759.6 355 759C355 758.4 357.8 753.1 361.1 747.2C368.8 733.9 368.8 733.7 365.1 738C363.4 739.9 360.7 744.1 359 747.3C350.6 762.8 325.9 786.4 307.8 796C302.3 799 302.2 799.1 302.7 802.8L303.2 806.6L295.9 807.8C286.2 809.5 283 811.7 277.6 820.4C275.1 824.5 273 828 273 828.4C273 828.7 284.2 829 298 829H323L322.4 826.2C321.9 823.6 322.4 823.1 328.2 819.4C334.6 815.4 401.2 783 401.9 783.6C402.1 783.7 400.8 785.9 399 788.3C395.4 793.4 386.5 800.4 380.3 803.1C377.9 804.1 376 805.1 376 805.4C376 805.6 377.7 806.8 379.7 808L383.5 810.2L379.9 812.1C377.9 813.1 372.8 815.3 368.7 816.9C364.6 818.6 358.8 821.1 355.8 822.5C352.1 824.4 348.3 825.3 343.5 825.7L336.5 826.1L339.8 823.2C341.6 821.6 344.9 819.7 347.1 819.1C355.1 816.7 350.2 817.1 337.7 819.8L325 822.6L327.2 824.8C328.4 826 329.1 827.2 328.8 827.5C327.7 828.7 314.1 832.9 306.6 834.4C301.2 835.6 293.2 836 278 836H256.9L253.5 843.2C251.6 847.2 250 851 250 851.6C250 852.3 251.3 853.3 252.9 853.8L255.7 854.8L256.4 848.9C257.4 838.7 257.8 837.9 260.8 839.2C264.9 841 288.9 840.6 302 838.7C316.6 836.5 336.3 831.7 344.4 828.5C347.8 827.1 351.9 826 353.3 826C354.8 826 358.8 824.9 362.2 823.5C368.9 820.8 371.5 820.4 372.5 822C373.6 823.8 371.3 825.6 362.5 830.1C357.8 832.4 354 834.5 354 834.6C354 834.7 356.6 834.6 359.8 834.3L365.5 833.8L362 836.1C354.6 840.9 335 849.4 321 854.1C296.3 862.2 277.6 865 269.6 861.6C266.5 860.3 266.3 859.9 266.9 856.8C267.5 853.8 268 853.4 271.8 852.9C278.7 852 277.9 850.9 270.5 851.2L263.5 851.5L263 861L262.5 870.5L260.7 867.8C259.6 866.3 258.2 863.1 257.5 860.8L256.1 856.5L256 861.5L255.9 866.5L249.9 869.4L243.8 872.2L240.9 870.1C237.2 867.4 237 867.4 237 871C237 873 235.6 876 233.2 879.3C226.3 888.7 226.6 889.1 235.7 883C242.8 878.2 249 876.6 249 879.7C249 880.7 248.4 882.2 247.8 882.9C246.7 883.9 247.1 884 249.5 883.5C251.2 883.1 254.2 882 256.3 881C258.3 880 260 879.6 260 880.1C260 881.4 253.1 886.2 248.2 888.4C245 889.9 244 890.9 244 892.7C244 893.9 244.2 895 244.4 895C244.6 895 249.4 892.7 254.9 889.8C260.5 887 265.2 884.9 265.5 885.2C266.5 886.1 259.8 894.2 256.8 895.8C252.9 897.9 245.2 904.7 243.8 907.3C242.9 909.1 243 909.2 245.6 908.6C247.1 908.2 250.1 906.3 252.2 904.5C254.3 902.6 257.1 900.8 258.5 900.4C260 900 261 899.1 261 898C261 896.9 262.2 895.8 264.1 895.1C268.8 893.5 268.8 893.7 264.7 897.1C261.9 899.4 261 900.9 261 903.3C260.9 906.2 260.8 906.3 259.6 904.7C258.4 903.1 258 903.7 255.7 910.2C254.3 914.2 252.4 919.8 251.5 922.6C249.7 928.5 247.2 931.5 242.6 933.4C240.6 934.2 237.4 937.2 235 940.3C231.4 945.2 227.2 948 223.7 948C221 948 226.8 930.5 232.9 920C235.6 915.4 237.7 911.4 237.5 911.1C237.3 910.9 235.3 912.2 233 914C227.5 918.4 224.3 924.2 223.5 931.5C222.6 939.6 221.6 942.8 216 955C212.4 962.9 211 967.2 210.6 972.3C209.8 980.1 211.4 981.5 212.4 973.8C213.3 967.2 215.4 962.2 218.8 958.7C221.9 955.4 229.8 950.5 230.7 951.3C231.2 951.9 220.7 999.6 219.2 1003.3C218.7 1004.6 214.6 995.9 205.1 973.6L191.7 942.1L188.2 942.3C184.8 942.5 184.7 942.5 183 936.1C182 932.6 180.3 928.6 179.1 927.1C174.1 920.9 173.5 919.6 173.2 912.8L172.8 906H176C177.8 906 181 905 183.1 903.8C186.1 902.1 187 901 187 899C187 896.7 186.6 896.3 184.6 896.7C182.8 897.1 182.2 896.7 181.8 894.8C181.4 892.6 182 892 187.2 889.7C190.4 888.3 193 887.4 193 887.7C193 887.9 191.9 889.6 190.5 891.4C187.4 895.5 187.3 897 190.3 897C191.5 897 193.4 897.3 194.5 897.6C196.1 898 197.8 896.3 203.3 888.6C207 883.4 210 878.9 210 878.6C210 878.3 206.6 879.9 202.4 882.2C198.3 884.4 194.7 886 194.4 885.7C193.3 884.6 201.3 877.1 206.5 874.4C209.7 872.7 212 870.8 212 869.9C212 868 218.8 863 221.3 863C222.2 863 223.7 861.8 224.7 860.4C225.6 859 228.7 856.1 231.5 854C234.4 851.9 237 849.2 237.3 847.9C237.8 845.9 237.6 845.8 233.9 846.4L229.8 847.1L232.1 843.8C236.8 837.1 254.1 822.5 259.3 820.7C260.6 820.3 255.6 812 254 812C253.5 812 248.9 815.5 243.9 819.7C228.3 832.8 226.7 834.2 220.7 838.1C215 841.8 214.9 841.9 217.2 843.4C218.9 844.6 219.6 844.7 220.1 843.8C220.6 843.1 221.2 842.9 221.6 843.2C222.8 844.5 207.4 858 204.7 858C204.2 858 205.9 855.5 208.6 852.4C212 848.3 212.8 846.9 211.3 847.4C210.2 847.8 207.3 848.6 204.9 849.3C201.5 850.3 200.1 851.3 198.9 853.9C197.3 857.4 194 860.2 183.3 867.3C179.8 869.6 176.7 872.2 176.4 873.2C176.1 874.2 174.2 875.8 172.2 876.7C168.6 878.2 168.6 878.3 171 878.9C172.8 879.4 173.7 879.2 174.2 878.1C174.6 877.2 174.9 878.9 174.9 881.7C175 884.6 175.3 887 175.8 887C176.2 887 179.7 884.6 183.5 881.7C187.4 878.8 192.7 875.1 195.4 873.5L200.2 870.7L198.6 873.7C196.5 877.8 187.9 885.2 181.1 888.9C178 890.5 174.1 893.3 172.3 895L169.2 898.1L166.3 893.8C155.9 878.4 147.9 837.3 149.2 806.5L149.7 795.3L165.5 777.4L181.3 759.5L206.1 693C219.8 656.4 231.7 624.8 232.5 622.7L234.1 618.8L231.4 620.9C229.9 622.1 227.8 623 226.6 623C225.5 623 224 623.4 223.4 623.8C222.7 624.2 217.2 640.8 211.1 660.6C190.6 727.5 181.9 750.1 172.2 762.1C152.3 786.9 154.2 785 149.3 785C142.2 785 137.8 786.8 129.3 793.2C121.6 799 113.2 804 111 804C110.2 804 110.1 802.9 110.5 801.1C111.5 796.3 109.4 790.2 106 788.5C97 783.8 79.2 791 34.9 817.2C24.1 823.6 13 830 10.2 831.4L5.10003 834L6.50003 838.1C8.40003 843.3 8.40003 845.8 6.60003 852.9C5.80003 856 4.40003 864.3 3.50003 871.5C2.60003 878.6 1.40003 885 0.900028 885.6C-0.299972 887 1.00003 900.2 2.50003 901.6C4.00003 903.2 8.10003 918.5 13 941.2C18.9 968.4 23.5 976.2 35.8 979.6L41.6 981.2L43.5 987.9C47.9 1003.8 61.3 1033.7 69 1045C77.1 1056.9 79.3 1056.6 79.8 1043.2C80.2 1032.9 80.7 1030.7 82.1 1033.2C83.8 1036.3 100.6 1079.8 109.4 1104.1C116.6 1124.1 119.2 1132.1 124.6 1150.5C125 1151.9 124.9 1152.2 124.2 1151.5C122.9 1150.2 98.9 1106 94.5 1096.6C92.6 1092.7 89.4 1087.9 87.4 1086L83.8 1082.5L84.5 1087.5C86.4 1101.2 91.4 1115.2 104.2 1142.3C115.5 1166.3 117.1 1170 116.2 1170C114.9 1170 105.7 1159.9 98.5 1150.8C93.9 1144.9 90.4 1141.4 87.9 1140.3C84.6 1138.7 84 1138 83.4 1134.1L82.7 1129.8L78.8 1134.4C76.6 1136.9 74.5 1139 74.1 1139C73.7 1139 70.5 1133.7 67.1 1127.2C59.3 1112.6 58.6 1111.9 59.3 1119C60 1126.6 65.8 1140.6 74.7 1156.1L82.2 1169.2L79.6 1175.1L77 1181.1L84.9 1192.3C89.2 1198.5 93.6 1205.5 94.7 1208.1C95.8 1210.6 98.8 1215.4 101.4 1218.9C103.9 1222.4 106 1225.8 106 1226.6C106 1230.4 111.6 1228.5 114.3 1223.7L116.1 1220.6L119.3 1224.2C121.1 1226.1 125.7 1229.9 129.5 1232.5C133.4 1235.2 137.5 1238.2 138.8 1239.4C140.2 1240.6 142.2 1241.4 143.8 1241.2C146.6 1240.9 156 1246.1 156 1247.9C156 1249.1 162.9 1253.4 163.6 1252.7C164.3 1252 161.9 1247.5 156.4 1238.9C151.3 1231.1 146.7 1221.5 147.2 1220C147.5 1219 168.8 1241.8 180.2 1255.3C184.2 1259.9 186 1261.2 191.2 1262.9C200.1 1265.9 203.2 1268.1 208.1 1274.6L212.3 1280.3L220.4 1279.7C229.2 1279.1 235.2 1277.1 251.5 1269.6L261.5 1265L264.8 1258.3C266.7 1254.5 269.7 1249.9 271.5 1248C273.8 1245.5 274.9 1243.2 275.3 1240.1C276.1 1233.3 274.2 1218.9 270.5 1204.8L267.3 1192L272.6 1187.9C282.6 1180.2 289.6 1167.9 292.6 1153C293.9 1146.3 294.1 1141.6 293.7 1131C292.6 1107.3 286.6 1085.9 273.3 1057.5C264.4 1038.6 262 1031.6 262 1024.7C262 1016.8 264.9 1012.8 277.8 1002.5C283.9 997.5 292.7 989.5 297.1 984.7C303.3 978 306.9 975.1 311.9 972.6C315.5 970.7 322.6 965.7 327.5 961.5C338.6 951.9 341.9 949.8 351.7 945.9C367.1 939.8 381.5 929.4 401.7 909.9C413.2 898.8 416.3 896.3 418.2 896.7C419.9 897 421.6 896 425 892.6C428.9 888.5 429.2 888 427.2 888C425.1 888 425 887.9 426.4 885.2C427.2 883.7 431 879.2 434.8 875.2C440.4 869.4 443.2 865.3 448.4 855.2C454.7 842.9 455.5 842 468.1 829.5C487.3 810.5 493.8 799.9 505 769C507.9 761 511.3 752.5 512.5 750C513.8 747.5 520.6 738.7 527.7 730.4C543.2 712.2 546 708.5 553.5 695.5C563.6 678 571.9 671.9 597.5 663C613.2 657.6 632.7 648.2 637.7 643.6L641.7 640H653.5C664.9 640 665.5 639.9 674.4 636.2C679.4 634 684.4 632 685.5 631.6C686.6 631.2 694.9 630.5 704 630C719.3 629.1 721.9 628.7 740.6 623.7C761.1 618.2 763.4 617.2 775.7 608.5L781.9 604.2L787.7 605.5C794.9 607.2 809 612.1 828 619.2C850.2 627.7 902.5 644.7 911.9 646.6C930.1 650.2 943.5 646.8 953.9 636.1C963.3 626.2 967.3 616.3 996 530.5C1034.5 415.4 1064.4 323.2 1071.4 297.5C1073.3 290.9 1076.8 278.4 1079.4 269.7C1081.9 261 1084 253.2 1084 252.4C1084 251.3 1084.6 251.1 1085.9 251.5C1087.4 252 1088.3 251.4 1089.5 249C1090.4 247.3 1090.8 245.5 1090.5 245C1089.5 243.3 1093.8 227.3 1098.4 216.3C1100.8 210.3 1103.1 203.9 1103.5 202C1103.9 200.1 1106.8 192.9 1110 186C1119.4 165.9 1122.7 150.3 1120.1 137.8C1118.7 131.2 1113.9 123.5 1109.3 120.4C1098 112.8 1009.4 81.8 872 37.2C858.5 32.8 838.9 26.3 828.5 22.7C806.8 15.2 787.8 10 781.7 10C775.8 10 769.9 13.2 766.2 18.6C762.9 23.2 757.5 26.4 753.8 25.8C752.4 25.6 750.9 23.2 748.4 17.5C744.1 7.60003 739.2 2.60003 731.9 1.10003C727.4 0.10003 697.1 -0.0999703 679 0.70003ZM726.4 6.00003C733.8 7.70003 737.6 12 738.2 19.4L738.5 23.4L733.6 23.1C730.9 23 725.5 22 721.6 20.9C717.7 19.8 710.2 17.8 704.9 16.3C695.9 13.9 695.1 13.5 693.6 10.3C692.7 8.50003 692 6.70003 692 6.50003C692 5.20003 721 4.70003 726.4 6.00003ZM653.4 9.00003C660.9 10.2 661.7 11 660 15.2C657.8 20.6 656.1 22 651.4 22C640 22 624.5 18.3 622.6 15.1C621.1 12.8 634.8 8.50003 644.5 8.10003C646.2 8.10003 650.2 8.40003 653.4 9.00003ZM569.5 13C571.2 15.8 570.1 19.9 566.3 24.7C564.1 27.5 561.7 31.2 561 33C559.7 36.2 559.6 36.2 554.6 35.6C551.8 35.2 541 33.4 530.5 31.5C508.1 27.4 494.4 25.9 488.1 26.7C478.8 27.9 471.6 33.7 470.5 40.8C470.2 42.8 468.6 48.8 467 54C464.3 62.6 461.1 69.1 449.8 88.7C445.5 96.1 442.4 104 441.5 110.1C440.7 115.4 442.6 121 446.7 125.2C449.4 128 458.4 132 462 132C463 132 464.1 132.4 464.4 132.9C464.7 133.4 463.6 138.4 461.9 143.9L458.8 154.1L460.8 156.3C465.8 161.8 466 164 465.2 197.5C464.4 229.6 464.5 229.2 455.7 233.6C449.1 236.9 447.3 238.6 444.7 243.5C441.2 250.2 441.9 259.2 447 274.1C451.7 288.1 455.8 297.1 459.3 301.5L461.6 304.5L459.9 335.3C459 352.2 457.9 366.7 457.6 367.5C457.3 368.3 454.8 370.1 452.1 371.5C446.2 374.5 445.5 376.3 445.6 391C445.6 399.2 445.9 401.3 448.3 406.5C449.8 409.8 452.9 414.8 455.1 417.8L459.2 423.2L458.1 458.3C457.4 477.7 456.7 496.2 456.4 499.5L455.9 505.5L447.2 504.9C438.7 504.4 432.4 502.4 430 499.5C428.7 497.9 429.3 508 417.5 291.6C412.8 205.3 409.1 134.3 409.2 133.9C409.4 133.4 411.2 134.2 413.3 135.7C417 138.3 417.4 139.2 420 149.7C421.2 154.3 422.5 155.4 428.4 156.5L432.3 157.3L431.6 150.1C431 143.9 431.2 141.9 433.6 134.6L436.3 126.2L432 118.7C429.7 114.5 426.4 109.7 424.7 107.9L421.7 104.6L418.3 108.5C416.3 110.9 414.2 114.9 413 119.1C411.8 122.9 410.5 126.2 410 126.5C408.9 127.2 406.5 119.3 404.9 109.5C402 92.5 404.1 50.7 408.5 36.2C410.7 28.8 417 22.6 424.2 20.6C427.9 19.6 449 18.1 493.5 15.7C567.7 11.7 568.7 11.7 569.5 13ZM698 21C704.3 23.4 715.3 26.8 722.4 28.6C733.8 31.6 742.8 35 746.8 37.8C747.9 38.5 747.6 40.6 745 48.8L741.8 58.9L734.6 61C726 63.6 718.5 67.6 715.9 70.8C712.4 75.3 713.3 81.3 719 91C723.5 98.7 724.6 101 723.7 101C723.5 101 719.6 99.6 714.9 97.9C704.6 94.1 698.3 94.2 692.1 98.3L688 101V109.3C688.1 125.1 693 130 706.9 128.4C712 127.8 714.4 127.1 714.3 126.3C714.1 125.6 715 124.5 716.2 123.9C717.9 123 718.2 123 717.7 124.1C709.1 145.3 696.3 180.9 689.5 202.6C686.4 212.4 685.6 214.1 684.2 213.4C683.3 213 678.2 212.5 673 212.3C664 211.8 663.2 212 658 214.7C641.8 223.2 646.3 242.9 666.2 250.2C669.4 251.3 671.9 252.8 671.7 253.4C671.5 254 667.3 267 662.4 282.4L653.5 310.2L647.2 309.6C639.2 308.9 635.9 310.2 630.2 316.4C620.4 327 620.7 335.8 631.3 344.1C634 346.3 636.9 348.4 637.8 348.9C639.2 349.7 639 350.8 636.3 359.1C631 375.2 621 401.4 619.6 402.8C618.9 403.6 615.6 404.7 612.5 405.3L606.7 406.5L604.2 413.8C600.9 423.9 601.5 426.4 609.5 434.8C614.8 440.3 616.1 441.2 617 440C618.7 437.4 629.5 409.6 638 385.5C642.5 372.8 663.7 310.5 685 247C753.8 42.3 752.6 45.7 762.5 31.1C765.2 27 769.2 22.2 771.3 20.6C778.3 15 784 16.1 841 34C901.1 52.8 1083.8 114.3 1091.9 118.5C1107 126.1 1112.6 138.2 1108.5 154C1107.6 157.6 1104.4 166.6 1101.5 174C1098.6 181.4 1093 198.1 1089 211C1073.4 262.1 1069.8 273.3 1062.5 294.5C1053.1 321.8 1042.9 354.7 1021.6 425.5C1003.8 484.8 1000.7 494.7 978.5 561.5C958.4 622.1 953.4 631.7 939.6 636.9C925.4 642.2 905.9 638.3 849.7 618.8C749.9 584.3 666 558.3 648 556.5L642.5 556L654.3 561.6C660.7 564.8 666 567.7 666 568.1C666 570.9 624.3 571.4 611.4 568.7C606.9 567.8 601.5 566.4 599.4 565.6L595.5 564.2L598.5 563.6C613.3 560.2 635.9 550.7 651.1 541.3C654.6 539.1 663.8 533.4 671.4 528.6C679.1 523.9 685.9 520 686.6 520C687.2 520 690.9 521.5 694.6 523.2C704.4 527.8 712.8 528.2 720.1 524.5C726 521.6 732.4 516 734.6 511.8C738.2 504.9 735.4 495.1 726.6 483.2C724 479.7 722.1 476.6 722.4 476.3C722.7 476 724.3 476.3 726.1 477C728.5 478 729.9 479.8 732.5 485.4C737.8 497.1 742 499.3 758.2 499.4H769L772.5 496C778.4 490.3 782.9 482.9 784.2 476.9C785.3 471.4 785.3 471.3 781.7 465.4C774.9 454.2 769.6 451 756.9 450.2C746 449.6 744.5 450 738 455.2L732.7 459.4L733.3 454.2C734 448.5 736.2 443.9 745.3 429.6C748.5 424.7 751 420.3 751 419.9C751 419.5 749 417.7 746.5 416C743 413.6 740.4 412.7 734.9 412.1C731.1 411.7 727.7 411.6 727.6 411.9C727.4 412.2 726.9 417.2 726.5 423C725.5 438.4 722.6 451 720.1 451C719.6 451 718 449.1 716.5 446.9C715 444.6 712 440.8 709.8 438.4L705.8 434.1L678.2 434.4C654.4 434.6 649.1 435 640.4 436.8C623.5 440.4 607.8 446.5 578 461C562.3 468.6 546.9 475.8 543.6 476.9L537.8 479.1L538.4 474.6C540.6 460.1 558.9 390.7 605.8 219.5C616.8 179.3 630.4 129.4 636 108.5C646.1 70.6 660.6 19.1 661.3 18.3C662.5 17.1 671.6 16.1 678.5 16.4C684.9 16.7 688.8 17.6 698 21ZM620.5 23.6C633.7 26.7 645.1 29.3 645.8 29.5C647.5 30.1 647.4 39.2 645.5 46.5C642.4 58.5 637.7 66.2 625 79.6C612.2 93.2 607 101.3 607 107.7C607 112.8 608.9 115.3 616.7 120.2C622 123.6 623.1 124.7 622.6 126.4C622.3 127.6 615.4 153.8 607.3 184.7L592.5 240.9L585 241.5C580.9 241.8 576.8 242.4 576 242.9C572.9 244.5 567 254.6 565.4 261C563.3 269.2 563.9 276 567.9 294.2C569.6 301.8 571 310.7 571 314C571 318.2 568.7 328.8 563 350.7C558.5 367.7 554.4 383 553.7 384.8C551.7 390.5 547.3 394.8 542 396.4C534.9 398.5 533.2 399.7 531 403.9C525.2 415.4 526 437.4 532.7 447.5C535.7 452 535.7 452.9 532.8 465C529.6 478.3 525.5 485.1 517.6 489.9C514.4 491.9 502.5 495.7 498 496.2C495.8 496.5 495.5 496.2 495.8 493.5C496.4 488.5 533.7 232.7 538.5 200.9C541 184.6 545.7 152.5 549 129.4C552.3 106.4 556.2 80.7 557.6 72.5C565.2 26.6 571.5 15.9 590 17.5C593.6 17.8 607.3 20.6 620.5 23.6ZM510 34.5C527.2 36.3 542.4 39.3 548.8 42C554.5 44.5 556 47.1 556 55C556 60.7 553.5 64.3 548.2 66.6C542.5 69 537.9 72.9 535.9 77.4C533.7 82.2 533.5 90.8 535.4 96.2L536.7 99.9L530.1 103.4C519.6 108.9 517 112.7 517 122.5C517 126.8 517.5 128.4 519.3 130C523.4 134 527.3 135.4 534.2 135.4C539.9 135.5 541 135.8 541 137.2C541 140.1 537.2 149.2 533 156.5C529.6 162.3 529 163.8 529.9 165.7C530.5 166.9 532.1 168.2 533.5 168.6C535.8 169.2 536 169.6 536 175.6C536 181.2 535.7 182.3 532.9 185.4C531.2 187.4 527.6 190.6 524.8 192.7C518 197.7 516.1 202.1 516 213V221.5L510.6 224.3C502.7 228.5 497 233.7 494.4 239.4C491.5 245.5 491.4 249.1 493.9 254.6C496.4 260 499.2 262.1 510.3 266.5C515.3 268.5 519.8 270.5 520.2 270.8C520.6 271.2 519.8 277.8 518.5 285.5C517.1 293.2 516 299.8 516 300.2C516 300.6 512.9 302.5 509 304.6C505.2 306.6 500.2 310.2 497.9 312.7C493.8 317.1 493.8 317.4 494.3 322.8C495.2 331.4 499.3 337.1 508.5 342.5C510.1 343.5 510.1 344.5 509.1 355.7C507.7 371.6 505.4 378.5 498.1 389.3C492.4 397.6 490 403 490 407.6C490 408.8 491.8 413.4 494 417.8C496.2 422.2 498 426.8 498 428.1C498 430.6 490.2 491 489.5 494.7C488.6 498.9 476.8 503 465.9 503C460.9 503 460.8 503 461.4 500.2C463.4 490.4 465.5 435.4 467 350.5C467.5 319.7 468.5 263.9 469.2 226.5C469.9 189.1 470.4 139.6 470.2 116.5C470.1 90.2 470.4 71 471.1 65C472.4 53.8 475.9 42 479.5 36.7L482.1 33H489.3C493.3 33 502.6 33.7 510 34.5ZM341.9 406.6C340.1 408.6 337.8 410.6 336.9 411C334.3 412.5 327 413.9 327 412.9C327 410.6 332.3 406.3 337.2 404.8C345.1 402.4 345.8 402.6 341.9 406.6ZM689.7 450.6C698.6 457.8 701 469.9 695.8 481.1C690.9 491.5 684.7 495.9 665.9 502.5C646.5 509.3 619.8 514.2 612.5 512.4C609.2 511.6 602.8 500.9 600.5 492.5C597.5 481.7 600.9 475.6 613.8 469.1C622 464.9 639.3 457.7 649.6 454C664.6 448.6 672 447 679.2 447.3C684.9 447.5 686.4 448 689.7 450.6ZM714.4 471.5C715.7 475 712 478 706.4 478C702.6 478 703.8 474.9 708.5 472.3C713.3 469.6 713.6 469.6 714.4 471.5ZM634.5 537.4C632 539.4 631.4 539.6 631.2 538.3C630.7 536.5 632.7 535 635.5 535C637.2 535 637.1 535.3 634.5 537.4ZM524.3 556.1C528.3 556.8 531.9 557.6 532.4 558C533.4 559 525.6 560.6 512.5 562C501.6 563.3 491.1 565.3 486.7 566.9C484.1 567.9 483.9 567.8 484.2 565.8C484.6 563 491.1 559.7 501.4 557C509.8 554.8 514.6 554.6 524.3 556.1ZM525.9 565.4C525.7 565.7 519.8 567 512.8 568.4C499 571.2 491.4 574.1 484.1 579.3C480.3 582.1 479.1 582.4 477.3 581.6C476 581 475 580.2 475 579.8C475 578.5 484.1 572.8 490.3 570.3C498.1 567.1 508.3 565.2 518.4 565.1C522.8 565 526.1 565.2 525.9 565.4ZM559.6 570.2C557.3 571.5 543.1 572.6 544.3 571.4C545.1 570.5 552.3 569.3 558 569.2C561 569.1 561.2 569.2 559.6 570.2ZM469.1 578.3C467.7 580.8 464.1 583.5 463.2 582.6C462.9 582.2 464.2 580.4 466 578.5C469.6 574.7 471.1 574.6 469.1 578.3ZM604.6 583.1C604.8 583.5 602.5 585.6 599.5 587.9C596.5 590.2 594 592.3 594 592.5C594 592.7 595.6 592.2 597.6 591.4C599.6 590.6 601.4 590 601.5 590.2C601.7 590.4 599.5 594.3 596.5 598.8C592.1 605.5 591 608.1 590.5 612.8C590.2 615.9 589.1 620.7 588 623.4C586.5 627.1 586.3 628.7 587.1 630.3C591.1 637.7 579.2 658.3 563.4 671.4C551.5 681.2 549 683.1 549 682.3C549.1 679.3 551.4 672.2 552.7 670.8C553.6 669.8 555.6 669 557.1 669C559.6 669 560.1 668.5 561.1 664.7C561.8 662.4 562.3 658.3 562.3 655.6C562.2 652 563.2 648.8 565.6 643.6C570.1 634.4 569.9 632.8 565 637.9C562.2 640.7 561 642.9 561 644.8C561 646.4 560.2 648.5 559.1 649.4C557.4 651 557.2 651 556.6 649.4C555.7 647 557.8 641.3 559.8 640.8C561.1 640.4 561.9 638.4 562.9 632.6C565.6 616.3 569.3 609 584.4 589.8L595.2 576L599.7 579.2C602.1 581 604.3 582.8 604.6 583.1ZM719.6 582.6C737.7 587.7 746.7 592.5 742.3 594.8C737.9 597.1 725.5 601 718 602.4C698 606.2 685.1 603.1 680.5 593.4L678.7 589.7L677.4 592.1C675.5 595.6 675.7 601.4 677.8 603.2C683.3 608.1 693.5 610.4 714.3 611.6C725.5 612.2 727.2 612.1 728.3 610.6C729.6 608.9 758.2 597 761.1 597C764.7 597 762.7 601 757.2 604.6C750.4 609.2 742.2 612.1 734.5 612.7C726.1 613.3 725.4 613.6 727.1 615.7C728.4 617.2 728 617.3 723.2 616.8C717.1 616.2 717.4 617 724.5 619.8C727.5 621 728.9 622 728 622.3C727.2 622.6 716.2 623.4 703.5 624C690.9 624.6 679.9 625.3 679.2 625.6C678.5 625.8 676.7 623.3 674.8 619.5C673 615.9 671.2 613 670.9 613C669.2 613 667 616.4 667 619C667 620.6 666.7 622.7 666.4 623.7C666 625 666.1 625.1 666.8 624.2C667.5 623.2 668.4 623.5 671 625.6C673.9 628.1 674.1 628.5 672.5 629.6C670.4 631.1 657.1 634.4 656.3 633.6C655.9 633.3 656.1 630.5 656.7 627.5C657.2 624.5 657.4 622 657 622C656.6 622 655.3 623.1 654 624.5C651.1 627.6 649.6 627.7 648.3 624.8C647.4 622.8 647.2 623.1 646.1 627.8C645.4 630.6 644.4 633 643.9 633C642 633 639.2 629.1 638.6 625.4C638.2 623.2 637.3 619.7 636.7 617.5C635.6 613.7 635.5 614.2 635 625L634.5 636.5L631.2 636.3C628.4 636.2 627.8 636.6 627.4 638.9C626.8 641.9 622.2 645 618.4 645C615.7 645 615.5 644.1 617 639.1C618.5 633.9 617.6 634.3 614.1 640.3C611.6 644.8 610.4 645.8 607.7 646.3C605.9 646.6 601.1 649.1 597.1 651.9C593 654.7 589.5 656.8 589.3 656.6C589 656.4 592.7 644.4 597.4 630C604 609.8 606 602.5 606 598.1C606 595 606.4 592 606.8 591.4C607.2 590.7 614.3 590.1 625.7 589.6C649.2 588.8 664.5 586.8 680.5 582.7C698.1 578.1 703.4 578.1 719.6 582.6ZM560.5 583.9C557.1 585.4 548 587.8 538.1 589.7L535.7 590.1L539 593.5C540.9 595.4 542.2 597.2 541.9 597.4C541.7 597.6 538.6 599.5 535 601.5C531.4 603.6 528.4 605.4 528.3 605.4C528.2 605.5 529.2 610 530.6 615.4C532 620.8 532.9 625.9 532.6 626.6C531.8 628.7 533.2 628.2 537 625C541.2 621.3 541.6 621.3 542.5 624.7C542.8 626.2 544 628.7 545.2 630.2C547 632.9 547.1 633.2 545.6 635.5C544.7 636.9 542.7 638.9 541 640.1L538 642.3L540.1 645.6C541.6 648 541.9 649.4 541.2 650.7C540.6 651.7 538.8 658 537.2 664.7C534.9 673.9 532.3 680.8 526.6 692.7C519.8 707.1 515.6 717 516.4 717C516.6 717 518.9 713.6 521.6 709.4C526.4 701.9 526.5 701.8 526.8 705C527.4 710.9 523.4 721.1 516.3 731.8C512.6 737.4 509.1 742 508.6 742C508.1 742 508 740.7 508.3 739.1C508.6 737.6 508.5 735 508 733.4L507.1 730.5L506.4 733C504.9 738 499.4 747.3 497.1 748.9L494.7 750.4L495.5 744C496.6 735 496.5 733.2 494.4 730.9C492.8 729.1 492.8 728.6 494 726.7C499.8 717.6 506 702.4 506 697.2C506 695.3 505.6 694.9 504 695.3C502.4 695.7 501.9 695.2 501.4 693.2C501.1 691.7 500.7 690.1 500.6 689.7C500.5 689.2 499.2 690 497.7 691.4C495.3 693.6 495 693.7 495 692C495 687.9 501.5 673.5 505.6 668.5C509.2 664 512 658 512 654.5C512 654 510.2 655.4 507.9 657.5C505 660.3 501.4 666.5 495.4 678.5C487.3 694.7 486.9 695.2 487.4 690.4C488.1 683.3 491.1 675.1 496.8 665.1C501.6 656.7 506.5 645.2 505.7 644.3C504.8 643.5 497.9 654 494.9 660.7C493.1 664.4 490.4 669.5 488.7 672L485.6 676.4L484.8 673.5C483.5 668.9 484.7 664.9 489 659.2C493.4 653.3 494.8 648.1 493.1 644.4C492.3 642.5 492.3 639.7 493.2 633.1L494.3 624.3L501.8 621.1C505.9 619.3 509.4 618.1 509.6 618.3C509.8 618.5 508.9 620.9 507.5 623.5C506.2 626.2 505.2 628.5 505.3 628.6C505.4 628.8 507.7 626.3 510.4 623.2C513.1 620.1 517.2 615.9 519.5 614C523.7 610.5 527.6 604.5 526.2 603.6C525.8 603.4 522.6 602.4 519 601.5C515.4 600.7 511.2 599.4 509.7 598.8C507.3 597.9 506.6 598 504.3 600.1C502.2 602.1 501.8 602.2 502.3 600.7C502.7 599.7 503 598.5 503 598C503 597.6 505.1 596.3 507.6 595.1L512.1 592.9L514.1 595.4L516.1 597.9L519.3 596C521.1 595 525.1 593.2 528.2 592C531.4 590.8 534.3 589.3 534.7 588.6C535.2 587.8 539.8 586.5 545 585.6C550.2 584.7 555.9 583.6 557.5 583.1C562.8 581.5 564.8 582 560.5 583.9ZM464.8 593C464.7 594.6 464.4 596 464.1 596C463.8 596 462.5 596.3 461.4 596.6C459.7 597.1 459.3 596.7 459.4 595C459.5 593.4 462.6 590.4 464.7 590C464.8 590 464.8 591.3 464.8 593ZM555.5 604.4C553.5 606.8 550.3 610 548.4 611.5L545 614.1V611.8C545 610.5 545.4 609 545.8 608.3C546.7 606.9 558.4 599 558.9 599.5C559.1 599.7 557.6 601.9 555.5 604.4ZM492.6 614.5C491 618.2 480.9 633.3 476.5 638.5L474 641.5L476.6 634C478.1 629.9 480.3 624.4 481.6 621.9C484 617 490.1 611 492.5 611C493.9 611 493.9 611.4 492.6 614.5ZM558.1 622.7C556.1 626.5 556.1 626.5 556 623.6C556 622 556.8 620.2 557.7 619.4C560.3 617.6 560.4 618.3 558.1 622.7ZM469.6 630.7C468.8 632.3 467.4 634.4 466.5 635.5C465 637.4 464.9 637.4 466.1 635C467.7 631.8 470.1 628 470.6 628C470.9 628 470.4 629.2 469.6 630.7ZM475 665.5L469.1 685.5V679C469 670.9 471.2 661.6 474.6 654.7C477.7 648.7 480.1 644.8 480.6 645.2C480.7 645.4 478.2 654.5 475 665.5ZM560.3 658.5C560 662.8 559.1 664.5 557.9 663.3C556.5 661.9 557.9 654.8 559.4 655.3C560 655.5 560.4 657 560.3 658.5ZM480.8 683.7C481 684.9 480 687 478.5 688.6L475.9 691.5L476.5 688C477.6 682.2 478.1 680.9 479.3 681.3C480 681.5 480.6 682.6 480.8 683.7ZM463 697.7C463 704.2 462.7 707 462 706C460.5 703.6 459.8 697.1 460.5 692.4C461.6 684.7 463 687.6 463 697.7ZM481 700.7C480.9 701.2 480.5 703.5 480.1 706C479.3 709.9 479.5 710.8 481.5 713.2L483.9 716L481.7 722.3C480 727 478.4 729.6 475.1 732.6L470.7 736.5L471.3 731.8C471.7 729.2 473.6 723.7 475.6 719.5C477.6 715.3 479 711.7 478.7 711.4C478.5 711.1 477.3 710.8 476.1 710.7C471.5 710.4 474.8 700 479.5 700C480.3 700 481 700.3 481 700.7ZM463.6 721.7C464.6 730.2 463.3 768.1 461.6 779C458.3 799.6 456.2 809 454.4 811.7L452.5 814.5L452.2 810.2C452 807.8 452.7 799.5 453.7 791.7C455 781.2 455.5 770.6 455.5 751C455.5 736.4 455.6 723.8 455.8 722.9C456.1 720.6 459.9 716 461.5 716C462.4 716 463.1 717.9 463.6 721.7ZM482.8 729.8C484.1 730.7 483.4 737 482 737C481.5 737 480.5 737.3 479.7 737.6C478.6 738 478.3 737.6 478.5 736.3C480.1 728.3 480.2 728.2 482.8 729.8ZM451.6 739.2C451.2 743.2 449.6 755.5 448 766.5C442.7 803.4 442 814 445.1 814C445.7 814 445.9 813.6 445.5 813.1C445.2 812.6 445.4 811.9 446 811.5C447.8 810.4 447 813.7 444.6 817.3C443.1 819.5 440.9 826 438.9 834.2C437.2 841.5 434.6 850.6 433.3 854.5C430 863.6 423.5 876.1 420.6 878.9L418.4 881L419.4 873.6C420 869.5 421.2 865.4 422.1 864.3C424.6 861.5 425.2 851.7 423.2 847.8C421.1 843.6 421.1 829.1 423.3 816.5C428.4 786.8 432.2 769.3 434.3 766.3C435.5 764.5 436.8 763 437.1 763C437.5 763 427.3 836.5 425.6 845.3C424.5 850.7 426.7 847 428.8 839.8C431.6 830.3 433.4 819.3 436.5 792.5C439.4 767.9 442.1 753 445 744.5C446.9 738.9 450.6 732 451.7 732C452 732 451.9 735.3 451.6 739.2ZM485.9 750.4C486.5 752.9 487 756.8 487 759.2C487 766.3 482.5 770.6 480 766C478.4 763 477.3 763.6 476.6 768C476.1 771.1 475.2 772.5 472.8 774C471 775.1 469.5 775.8 469.3 775.6C468.4 774.7 473.8 762.1 478 755.4C480.8 751.1 483 747.2 483 746.8C483 746.4 483.4 746 483.9 746C484.4 746 485.3 748 485.9 750.4ZM474.9 752.9C471.8 757.1 471.4 756 474.2 751.1C475.5 748.8 476.6 747.6 476.8 748.5C477 749.3 476.1 751.3 474.9 752.9ZM502 756.7C500.2 763.3 499.4 763.8 498.7 758.8C498.2 755.2 498.4 754.2 500.2 752.7C503.1 750.3 503.5 751.2 502 756.7ZM492 778.4C490.5 788.2 486.9 795.4 476 810C470.9 816.9 466.6 822.7 466.4 822.9C466.2 823.1 465.3 822.7 464.4 821.9C462.3 820.2 462.9 816.9 467.1 805.1C469 799.7 470.1 795.5 469.5 795.3C465.8 794 465.8 793.3 469.5 788.1C473.2 783 473.2 783 474.9 785.1C476.6 787.2 476.6 787.1 479.3 780.8C480.8 777.3 484.4 771.5 487.3 768L492.5 761.5L492.8 766.4C493 769 492.6 774.4 492 778.4ZM420.6 778.5C421.3 780.3 418.9 788.2 417.4 788.7C416.7 788.9 416.7 787.2 417.4 783C418.4 777.1 419.5 775.5 420.6 778.5ZM423.4 800.7C421.6 818.7 417.4 847.4 414.5 860.8C409.9 882.1 401 903.9 395.8 906.6C392.4 908.4 392.4 908.2 395.4 902.2C398.7 895.7 402.6 884.4 403.5 879L404.2 874.5L399 879.5C395.9 882.4 394 883.7 394.5 882.5C395.4 880 407 806.6 406.5 806.2C405.3 805 402.5 814.1 400.4 826.3C399.1 834.1 396.9 847 395.5 855C394.1 863 392.6 873.5 392.1 878.5C391.4 885.8 390.3 889.8 386.2 899.5C383.4 906.2 380.1 912.3 378.8 913.3L376.5 915.2L376 910.9C375.5 907 375.4 906.7 374.4 908.5C373.8 909.6 372.5 913 371.5 916C369.9 921.1 365.7 927 363.8 927C362.6 927 363.6 922.1 369.1 901.7C374 883.7 376.5 870.4 375.8 865.9C375.4 862.8 370.6 879.8 368 893.7C365.7 906.3 363 915.5 357.8 928.8C354.2 938.2 353.6 939 351.7 938.4C350.5 938 349.3 937.6 349.2 937.5C349 937.3 350.4 932.5 352.3 926.8C355.7 916.5 358.7 903.4 357.8 902.4C357.2 901.9 350.5 920.9 347.5 931.4C346.3 935.6 344.5 938.7 341.5 941.9C337 946.7 334.6 946.9 333.1 942.8C332.4 940.8 331.8 941.5 328 949C325.7 953.7 322.9 958.7 321.8 960.3C318.2 965.3 307.9 969.1 305 966.5C303.6 965.3 302.7 965.7 297.3 969.8C282.6 981.1 275.3 986.6 273 988.1C270.6 989.7 270.5 989.8 272.3 991.8C274.7 994.4 273.9 997.1 269.7 1000.2C267.9 1001.5 264.8 1003.9 262.6 1005.5L258.7 1008.4L261.4 1003.2C263.2 999.7 264 996.5 264 993.1C264 987 266 984.4 276.9 976.1C289.8 966.2 290.4 964.1 278.1 972.3C271.8 976.5 266.5 979.8 266.3 979.6C265.2 978.5 269 972.6 274.3 967.2C280.4 961.1 280.4 961 277 962.1C275.1 962.8 271.1 965.9 268.1 968.9C262.9 974.2 255.4 980 253.7 980C253.2 980 253.1 978.5 253.5 976.7C253.8 974.9 251.7 978.4 248.6 984.5C244.2 993.4 242.7 997.6 241 1006.5C237.5 1025.2 236.1 1030.3 233.8 1032.7C232.6 1034 231.5 1034.8 231.3 1034.6C231.1 1034.4 231.4 1029 232 1022.5C232.8 1014.9 234.9 1003.7 238.1 990.9C240.8 980 243 970.8 243 970.3C242.9 968.7 235.9 988.7 233.5 997.5C232.1 1002.4 231 1008.3 231 1010.4C231 1016.3 228 1025.1 226.1 1024.8C223.7 1024.3 221 1018 221 1012.7C221 1010.1 222.3 1002.5 223.9 995.7C225.6 989 227.9 979 229 973.5C232.4 957.8 236.5 947.8 241.7 942C244.2 939.3 246.7 937 247.3 937C248 937 249.3 939 250.4 941.5L252.2 946L254.9 941.8C256.4 939.4 259.2 936.2 261 934.7C264.4 931.8 273.2 927 275 927C276.7 927 271.9 935 269.2 936.8C266.3 938.7 265.4 940.4 264.5 945.8C263.8 950 263.9 950.1 265.9 948.8C267.2 948 268.2 946 268.6 943.2C269.2 939.4 269.8 938.5 274.9 935.1C278 933 283.4 929.8 286.9 928L293.3 924.8L295.1 927.1L296.8 929.3L298.3 926.4C299.1 924.8 300.5 921.9 301.3 919.8L302.8 916.2L297.3 918.6C294.3 919.9 289.6 922.2 286.8 923.6C281.9 926.1 281.6 926.1 280.4 924.5C279.6 923.5 278.9 922.4 278.8 921.9C278.6 921.5 276 921.8 273 922.6C270 923.4 267.2 923.9 266.8 923.8C266.3 923.6 267.1 921.8 268.6 919.7C270 917.6 271 915.6 270.7 915.4C269.9 914.6 263.4 917.6 258.5 921C256 922.7 254 923.8 254 923.5C254 923.2 256.3 920.4 259.2 917.4L264.3 912L262 909.8C259.8 907.7 259.8 907.6 261.6 906.9C262.6 906.5 266.8 906.1 270.9 906.1L278.2 906L275.5 909.6C274 911.5 273 913.4 273.3 913.7C274.2 914.5 286 907.8 285.4 906.9C285.1 906.4 283.8 906 282.4 906C276.9 906 282 900.5 290.1 897.6L295.4 895.8L299.7 900.3C302.1 902.9 304.3 906.3 304.6 908C305 909.6 305.6 911 305.9 911C306.3 911 308.4 909.7 310.6 908L314.5 905.1L316.1 907.2L317.7 909.3L320.7 907.2C322.9 905.7 324 905.4 325.4 906.2C326.7 906.9 328.4 906.7 331.6 905.5C335.9 903.9 341.3 904.1 342.5 906C342.8 906.5 342.5 908.1 341.9 909.7C341.3 911.2 340.5 914.5 340 917C339.2 921.4 339.2 921.5 340.9 919.3C341.9 918.1 343.5 914.1 344.4 910.5C346.6 901.7 351.5 891.5 354.8 888.9L357.5 886.8L358 892.9L358.5 899L365 874.5C368.5 861 371.7 850 372 850C372.3 850 373.3 850.7 374.3 851.4C375.5 852.3 376 854.2 376 857.6C376.1 862.3 376.1 862.4 377.5 860C378.3 858.6 379.5 854.3 380.1 850.3C380.8 846.4 382.2 842.1 383.3 840.8C385.1 838.5 385.2 838.6 384.6 849C384.3 854.8 382.3 869.3 380 881.3C377.8 893.4 376 903.6 376 904.1C376 904.6 376.6 905 377.4 905C379.4 905 380.6 899.4 385.1 868.5C388.6 844.4 389.1 839.8 388.1 835.7C386.6 829.1 386.7 828.7 389.1 830C391.6 831.4 391.2 831.8 393.3 825C394.2 822 397.2 815 399.9 809.5C404.1 801.1 405 799.9 405.5 801.7C405.9 803 406.6 804 406.9 804C407.3 804 409.4 801.1 411.5 797.5C413.6 793.9 415.4 791.1 415.6 791.3C415.9 791.6 406.3 858.9 404.5 869.8C403.5 875.2 405.6 872.7 407.9 865.7C410.6 857.4 411.6 850.8 413.5 830.5C415.1 812.9 417.8 799.3 420.6 793.7C422.1 790.8 424 788 424.4 788C424.5 788 424.1 793.7 423.4 800.7ZM144 810.2C144.1 845.7 146.4 862.7 154.7 888.5C164.5 919 171.9 935.8 194.7 979.5C219.2 1026.6 225.2 1037.6 240.6 1063.5C258.7 1094.2 274.7 1125.4 279.1 1138.6C283.3 1151.6 283.8 1164.7 280.2 1172.5C276.7 1180.1 269.9 1185.8 255 1193.4C247.8 1197.1 241.6 1200.9 241.3 1201.7C240.9 1202.6 242.7 1207.4 245.3 1212.5C250.2 1222.1 252 1230.4 250.3 1234.9C249.4 1237.1 249.2 1237 244.3 1230.9C237.7 1222.6 228 1207.6 219 1192C211.4 1178.7 203.9 1163.6 180.9 1115.5C173 1099 164.3 1081.8 161.4 1077.4C157.5 1071.3 155.2 1065.9 152 1055.9C149.7 1048.6 144.2 1033.1 139.8 1021.5C123 977.4 118.1 964 112.7 947.5C92 885.1 88.1 842.4 100.5 814.4L102.9 809H109.1C114.4 809 115.7 808.6 119.1 806C123.3 802.6 140.8 793 142.8 793C143.7 793 144 797.1 144 810.2ZM349.1 796.7C346.9 800.7 345.2 802.3 341.5 803.6C339.3 804.3 337.5 804.8 337.4 804.7C337.3 804.6 337.9 803 338.8 801.1C340 798.8 341.6 797.2 344 796.4C349.1 794.6 350.3 794.7 349.1 796.7ZM74.5 809.2C73.2 815.4 69 820.6 69 816.1C69 812 72.1 806.7 74.8 806.1C75 806 74.8 807.5 74.5 809.2ZM327.5 813.9C324.4 816.9 307.6 823 302.5 823C299.1 823 299.3 820.2 302.8 818.9C312.1 815.2 324.9 811.1 327.5 811.1L330.5 811L327.5 813.9ZM56.9 819.7C57 822.6 55 827.1 53.9 826.4C52.6 825.7 52.8 819.6 54.1 816.3C55.1 813.7 55.3 813.6 56 815.5C56.5 816.6 56.9 818.5 56.9 819.7ZM37.6 838.5C36.3 851.6 36.1 851.7 34 841.2C32.4 832.9 32.7 830.2 35.6 827.3C37 825.9 38.3 825 38.5 825.2C38.7 825.4 38.3 831.4 37.6 838.5ZM24.6 837.1C24.3 840.5 24 845.8 24 848.9C23.9 853.4 23.7 854.1 22.9 852.6C20.6 848.8 16.2 835.3 16.8 834.3C17.9 832.8 21.3 831.1 23.4 831C25.1 831 25.2 831.6 24.6 837.1ZM226.4 852.4C223.7 855.5 214 861.9 214 860.5C214 857.9 217.7 853.9 222.7 851.3C225.9 849.5 228.6 848.3 228.9 848.5C229.1 848.7 228 850.5 226.4 852.4ZM349 849.9C349 850.4 347.6 852.2 345.9 853.9L342.8 857H346C348.8 857 349.1 857.3 348.8 859.6C348.3 863.9 337 869.8 312.2 878.7C309.9 879.6 308.2 880.5 308.4 880.8C308.7 881 313.9 879.6 320 877.5C326.1 875.5 331.4 874 331.7 874.3C332.8 875.4 327.2 881.3 321.6 885.1C314 890.2 304.7 893 295.5 893C288.2 893 281.2 891.4 282.7 890C283.1 889.6 288 887.8 293.5 886C305.9 882 307.3 880.9 297.8 882.6C293.8 883.3 288.7 883.9 286.4 883.9C282.1 884 276 882.3 276 881.1C276 877.9 282.1 875.7 305 870.6C315.7 868.1 328.6 863.3 324.8 863.1C322.1 862.9 310.2 865.7 299 869C285.6 873.1 279.6 873.7 274.7 871.7C272.7 870.8 271 869.7 271 869.3C271 868.8 282.6 865.6 296.8 862.1C310.9 858.5 327.7 854.2 334 852.4C346.3 848.9 349 848.5 349 849.9ZM421 860C421 864.4 420.8 865 418.9 865C416.7 865 416.7 863.6 419 857.5C420.4 853.7 421 854.4 421 860ZM199.6 862.9C197.1 865.5 193 867.6 193 866.3C193 864.8 195.5 861.8 197.3 861C201.6 859.3 202.4 859.9 199.6 862.9ZM208.7 865.5C207.2 866.9 205.2 868 204.3 868C202.4 868 202.9 867.4 206.7 864.9C210.8 862.3 211.9 862.7 208.7 865.5ZM254.4 873.9C256.2 874.6 256.2 874.7 253.9 876.3C250.1 879 247.3 878.1 248.6 874.6C249.3 872.9 251.3 872.7 254.4 873.9ZM363 932.1C361.9 935.9 361.5 936.4 360.1 935.5C359.3 935.1 359.5 933.9 360.5 931.9C362.6 928 364.1 928.1 363 932.1ZM299 974.6C299 975 298.1 976.8 296.9 978.7C295 981.7 286.9 987 284 987C280.1 987 287.4 977.3 293 975.1C295.9 974 299 973.7 299 974.6ZM258 995.8L260.2 997.6L254 1003.3C250.7 1006.4 247.3 1009 246.7 1009C245.2 1009 245.6 999.5 247.2 996.2C248.6 993.4 254.7 993.1 258 995.8ZM246.4 1017.2C246.7 1018.5 247 1021.3 247 1023.4C247 1026.7 246.3 1027.9 242.8 1031.4L238.5 1035.4L238.2 1031.8C237.8 1027 239.5 1020.9 242.1 1017.6C244.6 1014.4 245.6 1014.3 246.4 1017.2ZM257 1041.7C256.9 1042.2 256.3 1045.3 255.6 1048.8L254.2 1055.2L256.6 1054.6C258.5 1054.1 259.1 1054.4 259.6 1056.6C260.9 1061.7 256.3 1071 252.5 1071C250.6 1071 250.6 1069.9 252.5 1063C253.3 1060 254 1057.2 254 1056.8C254 1056.4 252 1057.5 249.5 1059.2C247 1060.9 244.8 1062.1 244.5 1061.8C244.2 1061.5 244.7 1058.9 245.7 1056.1C247.9 1049.6 257.1 1037.9 257 1041.7ZM265.7 1070.7C267.6 1075.8 267.9 1086.4 266.2 1090.9C265.5 1092.9 265.1 1092.1 264.1 1085.7C263.4 1081.5 262.5 1078 262.1 1078C261.8 1078 260.4 1078.8 259.1 1079.7L256.7 1081.3L257.3 1076C257.9 1071.1 260.9 1066 263.1 1066C263.5 1066 264.7 1068.1 265.7 1070.7ZM274.6 1087.5C275.4 1089.5 276 1094.5 276.1 1099.7L276.2 1108.5L278.2 1104.1C280.1 1099.9 280.3 1099.7 281.6 1101.5C286.1 1107.6 289.4 1123.7 288.8 1137L288.5 1144.5L286.3 1141C284.3 1137.9 277.9 1119.4 276.6 1113C276.3 1111.6 274.7 1109.8 273.1 1108.8C269.4 1106.8 267.5 1100.7 268.4 1093.7C269.8 1083.8 272 1081.5 274.6 1087.5ZM213 1239.1C213 1239.4 214.2 1240 215.8 1240.3C217.6 1240.7 219.5 1242.4 221.8 1245.9C223.5 1248.6 225 1251.3 225 1251.8C225 1252.3 223.8 1253.5 222.4 1254.5C219.9 1256.1 219.8 1256.1 216.6 1252.7C214.5 1250.5 212.7 1247 211.7 1243.3C209.6 1235.8 209.5 1233.8 211.5 1236.4C212.3 1237.5 213 1238.7 213 1239.1ZM235 1236.5C236.1 1237.8 236 1237.9 234.6 1237.4C233.7 1237.1 233 1236.4 233 1235.9C233 1234.6 233.6 1234.8 235 1236.5ZM238 1261.8C238 1263.2 235.6 1264.6 228.3 1267.6C222.9 1269.7 218.2 1271.6 217.8 1271.8C216 1272.6 217.2 1270.1 220.3 1266.6C225.3 1260.9 238 1257.5 238 1261.8Z" fill="white"/>
<path d="M416.1 45.7C413 48.3 412.3 55 414.4 62.4C415.9 67.4 415.9 69.3 414.9 78C413.4 89.6 414.2 92.3 419.5 94.6C421.4 95.4 425.5 96.1 428.6 96.3C433.9 96.5 434.4 96.3 437.1 93C442.7 86.3 443 80 438 71.8C436.6 69.5 436.4 67.2 436.8 59L437.3 49L432.4 46.8C425.4 43.7 419.1 43.3 416.1 45.7ZM428.8 53C430.5 54.1 432 55.3 432 55.8C432 56.3 430.6 57.9 429 59.5C424.9 63.4 422.6 62.1 422.2 55.6C421.8 50.2 423.3 49.7 428.8 53ZM431.5 75.5C434.3 78.2 434.5 79.7 432.9 85.3C431.9 88.9 431.7 89.1 428.7 88.4C424.4 87.5 424.3 87.5 423 83.4C422 80.3 422.1 79.3 423.6 76.4C425.8 72.4 428.2 72.1 431.5 75.5Z" fill="white"/>
<path d="M774.9 46.6999C770.3 50.8999 760 70.5999 760 75.3999C760 79.6999 762.1 85.9999 763.9 86.8999C764.8 87.3999 768 87.9999 771 88.3999C776.4 89.0999 776.6 88.9999 780.1 85.2999C784.9 80.2999 786 77.9999 786 73.0999C786 69.6999 785.3 68.1999 781.6 64.0999C776.1 57.8999 775.2 55.4999 777.6 52.8999C779.9 50.2999 780.5 50.4999 784.6 54.4999C789.3 59.1999 791.1 59.1999 789.9 54.1999C789.4 52.1999 789 50.1999 789 49.7999C789 49.4999 787.8 47.7999 786.4 46.0999C783 41.9999 780 42.0999 774.9 46.6999ZM777 73.9999C777 79.1999 776.6 79.7999 772.1 80.1999C770.2 80.3999 769.5 79.8999 769 77.9999C768.1 74.7999 769.3 72.3999 772.8 70.5999C776.8 68.3999 777 68.4999 777 73.9999Z" fill="white"/>
<path d="M669.7 47.9001C664.6 51.2001 661.5 56.3001 660 63.8001L659.1 68.5001L667.3 76.7001L675.4 84.9001L673 87.5001C671.7 88.9001 670.2 90.0001 669.7 90.0001C669.2 90.0001 666.6 88.4001 664 86.5001C661.4 84.6001 658.8 83.0001 658.2 83.0001C657 83.0001 655 88.3001 655 91.5001C655 92.7001 655.9 94.9001 657.1 96.4001C661.1 101.5 672.4 99.1001 678.5 91.8001C684.7 84.4001 688.3 70.9001 687.2 58.5001C686.8 53.8001 686.4 53.2001 681.4 49.2001C678.5 46.9001 675.7 45.0001 675.3 45.0001C674.8 45.0001 672.3 46.3001 669.7 47.9001ZM679 58.1001C679 64.0001 675.1 70.0001 671.1 70.0001C670.6 70.0001 669.9 68.5001 669.5 66.7001C669.1 65.0001 668.6 62.7001 668.3 61.7001C668 60.5001 669.1 58.7001 671.5 56.4001C674.5 53.6001 675.5 53.2001 677.1 54.0001C678.3 54.7001 679 56.1001 679 58.1001Z" fill="white"/>
<path d="M848 85.6999C847.2 85.9999 842.3 90.2999 837.3 95.2999L828 104.5V113.8C828 122.4 827.8 123.1 826.3 122.5C812.5 116.8 799.7 118.1 790.5 126.2C782.8 133 779.4 142.7 782 150.5C783.8 156 790.6 162.3 797.4 164.9C804.7 167.6 807.8 167.6 818 164.5C822.6 163.1 826.5 162.2 826.7 162.4C827.4 163 824.9 171.2 822.9 175.1C821.9 177.1 818.8 181.6 815.9 185.1C813.1 188.6 810.1 192.8 809.3 194.4C807.9 197.2 807.9 197.4 810 199C813 201.2 823.2 204.7 829.1 205.5L833.7 206.2L834.3 199.3C834.7 195.6 835 190 835 187C835 182.6 835.9 179.6 839.8 171.3C842.4 165.7 844.8 161.1 845.1 161C845.5 161 846 162.7 846.4 164.7C847.9 174 855.8 185.5 862.3 187.9C876.5 193.3 896.3 175.6 893.5 160.2C891.9 151.6 884 143.4 874.7 140.9C869.5 139.5 862.2 141.3 857.4 145.1C855.4 146.7 853.6 148 853.4 148C853 148 849 140.3 849 139.5C849 138.7 857.7 134.9 867.4 131.5C877.5 127.9 883 122.9 883 117.2C882.9 106.7 877.6 94.7999 870.9 90.2999C865.1 86.4999 852.8 83.9999 848 85.6999ZM837 131.2C837 134.8 836.8 135.1 835.4 133.9C834.1 132.8 831 127.8 831 126.7C831 126.5 832.4 126.5 834 126.8C836.8 127.2 837 127.5 837 131.2Z" fill="white"/>
<path d="M755.1 103.3C753.9 105.2 753 107.8 753 109.1C753 112.7 751.9 113.5 747 113.8C744.5 113.9 741.7 114.3 740.7 114.6C738.5 115.3 736.3 119.5 735.9 124C735.5 127.3 735.7 127.5 740 129.2C742.5 130.1 745.4 130.9 746.6 130.9C747.7 131 749.4 131.6 750.4 132.3C752.1 133.6 752.1 134 748.6 140.5C744.5 148.2 744.2 150 746.9 150C747.9 150 750.2 150.3 751.9 150.6C754.7 151.2 755.1 151 756.5 147.6C757.5 145.2 757.8 142.6 757.4 139.8L756.7 135.7L761.1 136.3C763.5 136.6 767 137.2 768.7 137.6C771.5 138.2 772.4 137.8 775 135C778.5 131.2 778.7 128.7 776 124.2C773.5 120.1 771.7 119.4 766.8 120.7C763.4 121.6 763 121.5 763 119.9C763 119 764.1 117.3 765.6 116.3C768.4 114.2 770.1 108.6 768.9 105.3C768 102.7 765.8 101.5 760.8 100.6C757.5 99.9999 757 100.2 755.1 103.3Z" fill="white"/>
<path d="M657.4 106.8C656.2 107.2 654 109.1 652.4 111C650.8 112.9 647.6 116.1 645.3 118.2C640.1 123.1 639.1 126.4 642.1 129.6C643.3 130.9 645.5 132 646.9 132C651.8 132 652.1 133 649.3 140.8C647.9 144.8 646.9 148.2 647.1 148.4C647.3 148.7 649.7 149 652.4 149.2L657.3 149.5L659.3 143.5C660.4 140.2 661.4 137.3 661.6 137.1C661.8 136.8 664.8 136.2 668.3 135.5L674.5 134.4L674.8 129.2C675 125.1 674.8 124 673.6 124C671.4 124 667.8 118.8 665.5 112.2C663.4 106.3 662 105.4 657.4 106.8Z" fill="white"/>
<path d="M992 143.8C986.7 147.2 982.4 151.3 979.9 155.5C978.4 157.8 978 160.5 978 166.9V175.4L983.1 180.1L988.1 184.7L986.5 188.6C985.6 190.8 984.6 192.8 984.2 193.2C983.7 193.7 981.6 191 979.5 187.2C971.6 173.8 964.8 168.6 954.9 168.6C950.4 168.5 948.4 169.1 944.4 171.5C938.3 175.4 933.5 181.6 931.5 188.5C927.7 201.5 934.9 210.5 951.2 213.2C960.1 214.6 963.5 213.8 972.4 208C976.6 205.2 980.4 203 980.9 203C982.3 203 980 213.1 977 219.7C975.4 223.2 970.9 231 966.9 237.1C962.8 243.4 960.1 248.5 960.6 248.9C961.1 249.4 966.5 251.3 972.7 253.2L983.8 256.7L984.2 239.6C984.6 221.5 985.6 217.2 990.9 210.4C993.2 207.5 993.1 207.4 996 216.5C999.1 226.1 1001.4 230.3 1005 233.4C1007.8 235.7 1009 236 1015.7 236C1019.9 236 1025.1 235.4 1027.4 234.8C1033.1 233.1 1039.3 226.6 1040.9 220.7C1042.5 215.3 1041.9 200.6 1040.1 197.3C1038.9 194.9 1028.4 191 1023.3 191C1021.5 191 1016.8 192.3 1012.8 193.9C1001.8 198.2 999.5 198.4 998.1 195.4C997.1 193.2 997.3 192.8 1000.3 191C1002 189.9 1006.6 187.8 1010.3 186.4C1021.8 182 1026 175.7 1026 163.2C1026 159 1025.4 157.6 1022.1 153.4C1020 150.7 1016.1 146.9 1013.4 145C1009.4 142.2 1007.5 141.5 1002.5 141.2C997.2 140.9 996 141.2 992 143.8Z" fill="white"/>
<path d="M786.6 262.1C786.3 265.1 785.8 270.6 785.5 274.5C784.4 286.2 781.2 296.8 779 295.5C778.5 295.2 776.5 291.9 774.5 288.2C767 274.1 761.5 269 753.8 269C749.5 269 739.4 273.8 731.2 279.8L724.8 284.5L725.3 291.7C726.2 303.2 731.3 312.5 738.7 315.6C745.1 318.4 756.5 317.3 767.8 312.8C770.7 311.7 773.3 310.9 773.5 311.2C773.7 311.4 773.4 313.2 772.8 315.3C771.9 318.2 771.1 319 768.6 319.6C763.1 320.7 757.5 324.7 751.5 331.7L745.7 338.5L746.3 345.1C747.6 360.7 755.8 368.9 770.1 369C786 369 797.6 356.5 796.8 339.9L796.5 333.6L790.8 329.2C787.1 326.4 785 324.1 785 322.8C785 320.8 788 315 789 315C789.3 315 790.8 318 792.4 321.6C797.7 333.4 807 340.1 819.1 340.8C824.3 341.1 826.5 340.8 829.8 339.1C843.8 332 844.3 307.6 830.7 296.6C827.1 293.7 826.3 293.5 818.7 293.5C809.6 293.5 806.4 294.7 799.2 300.5C796.8 302.4 793.7 304 792.4 304C790.2 304 790 303.7 790.6 301.2C791.9 296 793 294 796.8 289.8C801.4 284.6 804.6 280.2 808.9 273.1C812 268 812 267.7 810.4 265.9C807.8 263.1 797.3 258.3 791.8 257.5L787.2 256.8L786.6 262.1Z" fill="white"/>
<path d="M933.7 308.3C933.4 309.5 932.1 318 930.9 327.2C929.6 336.5 928.3 344 927.9 344C927.5 344 926 341.9 924.5 339.2C917.8 327.6 910.3 322.7 899.5 322.8C889.1 322.9 882.3 326.6 878.3 334.3C876.9 337.1 874.1 348.8 874 352.1C874 354.4 884 365.1 887.7 366.6C889.5 367.4 893.8 368 897.2 368C902.6 368 904.2 367.5 909.2 364.4C912.4 362.5 916.5 360.6 918.4 360.3L921.8 359.8L920.4 367.1C919.6 371.2 919 374.8 919 375.2C919 375.7 918.4 376 917.8 376C915.7 376 904.2 381.7 900.4 384.6C887.2 394.7 890.1 413.4 906.2 421.6C914 425.5 919.8 425.8 926.5 422.6C935.2 418.3 940 409.9 940 399.1C940 392.3 937.8 387.2 932.1 380.6C928.5 376.4 928 375.3 928.6 372.6C929.5 368.2 930.9 365.8 932.3 366.3C933.8 366.7 938.2 372.7 942.3 380C946.6 387.4 950.1 389.2 959.8 389.3C970.3 389.4 976.2 386.2 982.3 377C984.3 374.1 984.5 366.5 982.8 360.8C981.3 355.8 975.3 349 969.8 346.1L965.5 343.8L951.1 348.3L936.8 352.9L937.4 348.7C938.5 342 941.2 337.1 949.3 327C953.5 321.8 957 317 957 316.5C957 314.9 947.7 309.2 943.4 308.2C934.2 305.9 934.2 305.9 933.7 308.3Z" fill="white"/>
<path d="M879.5 475.7C879.1 480 878.2 486.2 877.4 489.5C875.9 495.8 871.1 506.1 869.4 506.7C868.8 506.9 867.8 504.7 867.1 501.8C864.4 491.2 859.1 483.1 852.7 479.9C849.4 478.2 847.4 477.8 842 478.2C821.2 479.7 809.2 497 816.1 515.6C817.3 518.7 819.4 522.6 820.9 524.2C823.4 527 824.1 527.3 832.7 527.7C840.9 528.2 842.3 528 847.3 525.7C850.4 524.3 855 521.7 857.5 520C860.1 518.2 862.4 517 862.7 517.3C863.6 518.3 859.2 526.8 857.2 527.9C856.1 528.5 852.3 529.4 848.7 529.9C845.2 530.4 841.3 531.4 840.1 532.2C835.6 534.9 832 547.2 832 559.7C832 564.7 832.1 564.9 837.3 569.1C845 575.3 852.1 578.2 860.7 578.8C867.1 579.2 868.6 578.9 873.5 576.6C881.9 572.5 886.2 565.2 887.6 553.1L888.2 547.2L892.6 549C904.3 554.1 909.5 553.8 917 547.9C924.3 542.1 927.5 536.1 927.5 528C927.4 516.5 923.3 508.3 915.6 504.3C909.4 501.1 897.4 502.8 885.8 508.7C882.5 510.3 881 510.6 881 509.8C881 506.9 886.2 497.7 892.4 489.6C899.8 479.9 902.6 475.1 901.3 474C900.9 473.7 896.7 472.3 892 471.1C887.3 469.9 882.8 468.7 881.8 468.4C880.4 468 880.1 469.1 879.5 475.7ZM881.4 530.4C882.6 533.9 883 536.8 882.6 538.7L881.8 541.5L878.4 537.8C876.5 535.7 875 533 875 531.8C875.1 523.4 878.8 522.6 881.4 530.4Z" fill="white"/>
<path d="M959 518.5C957.7 522.6 956.5 526 956.4 526C956.2 526 953.9 524.9 951.3 523.5C946.3 520.8 943.6 520.8 939.3 523.6C937.7 524.6 937 526 937 528.3C937 532.4 938.1 533.8 944.8 537.9C947.6 539.7 950 541.5 950 541.8C950 542.2 948.8 544.8 947.3 547.5C943.8 554.3 944.5 557.5 949.9 559.1C955 560.6 956.7 559.9 958.6 555.4C959.8 552.5 959.9 551.2 959 548.9C958.3 547.4 958.1 545.3 958.4 544.2C959.3 541.5 962.2 540.5 963.6 542.4C964.7 544 970.4 544.6 973.4 543.4C975.5 542.6 976.5 536.8 975 534C974.4 532.8 971.9 530.9 969.5 529.9C967.1 528.8 964.8 527.5 964.5 526.9C964.1 526.4 965 523.9 966.4 521.4C969.7 515.5 969.7 513.2 966.4 512C962 510.3 961.4 510.8 959 518.5Z" fill="white"/>
<path d="M934.2 573.2C929.7 576.4 927 582.4 927 589.2C927 594.6 927.1 594.7 930.9 596.4C935.7 598.6 937.6 602.2 935.9 606.2C934.4 610 929.4 610.1 926 606.5C923.2 603.6 922.4 604.1 921.5 609.2C920.8 612.9 920.9 613 925.1 615C927.5 616.1 930.1 617 930.9 617C932.9 617 938.5 612.6 941.5 608.6C945.1 603.9 950 589 950 582.9C950 576.6 948.7 574.2 944.5 572.4C939.8 570.5 938 570.6 934.2 573.2ZM941.5 580.6C943.6 585.7 943.4 587.2 940.2 590.3L937.3 593L934.7 590.6C933.2 589.2 932 587.1 932 585.8C932 583.7 937.5 577 939.2 577C939.6 577 940.7 578.6 941.5 580.6Z" fill="white"/>
<path d="M579.2 50C569.6 55.9 564.5 74.1 568.5 87.8C569.8 92.1 570.5 93 572.4 93C573.7 93 576.7 93.3 579.2 93.6L583.6 94.2L587.9 88.5C592.1 82.9 592.2 82.6 591.1 78.9C589.5 73.8 586.3 70.3 582 69.2C578.5 68.4 578.5 68.3 578.2 62.2L577.9 56.1L581.5 56.7C583.5 57 586.5 58.6 588.1 60.1C589.8 61.7 591.6 63 592 63C592.9 63 591.4 54.7 590 52C588.9 49.9 585.9 48 583.8 48C583.1 48 581 48.9 579.2 50ZM583.8 77.7C588.1 84.1 587 86.9 579.7 87.7L575 88.3V84.7C575 82.3 575.9 80.1 577.6 78.1C580.8 74.3 581.4 74.3 583.8 77.7Z" fill="white"/>
<path d="M571.9 108.7C566.8 114.3 561 122.1 558.6 126.7C557 129.9 557 129.9 561.2 136L565.4 142.1L563.6 146.8C562.6 149.4 561.6 153.2 561.3 155.2L560.8 159H565.3H569.9L570.5 153.2C571.7 142.6 571.9 142.1 575.8 140.4C582.2 137.8 583 136.4 583 128.9C583 122.6 579.2 106.9 577.1 104.7C576.7 104.3 574.3 106.1 571.9 108.7Z" fill="white"/>
<path d="M496.6 63.3001C490.5 79.3001 489 97.5001 493.1 105.7C494.8 109.2 496.6 111 499.4 112.4C504 114.7 505.5 114 508.7 108.4C513.5 100 515.5 79.8001 512.7 69.2001C511.6 65.1001 511.1 64.7001 504.9 62.0001L498.2 59.2001L496.6 63.3001Z" fill="white"/>
<path d="M481.4 65.2001C477.6 72.6001 475.8 95.1001 478.1 107.6C479.4 114.7 480.2 115.8 482.2 112.8C485.7 107.4 488.3 85.1001 486.9 72.5001C485.7 61.3001 484.3 59.5001 481.4 65.2001Z" fill="white"/>
<path d="M487.3 128C482.1 130.1 482.5 135.6 488.6 143.5C491.5 147.3 491.2 147.5 486.1 146C482 144.8 479.6 145.9 477 150.3C475.9 152.1 475 153.8 475 154.2C475 155.8 482.1 159 485.8 159C488 159 490.1 159.4 490.4 159.9C490.7 160.4 489.9 164.5 488.5 169C487.1 173.6 486.2 177.5 486.3 177.7C486.5 177.9 489.3 177.5 492.4 176.8L498.2 175.7L497.5 168.6C497.1 164.7 496.7 161.1 496.6 160.5C496.6 160 499.2 159.1 502.5 158.5C507.5 157.6 508.5 157.1 509.1 155C510.5 149.9 510.1 148.2 507.3 147.6C505.7 147.2 502.8 146.4 500.8 145.9L497 144.9V136V127L493.3 127.1C491.2 127.1 488.5 127.5 487.3 128Z" fill="white"/>
<path d="M667 484.4C664.5 485.1 659.6 486.9 656.1 488.3C648.1 491.6 635.9 494 626.9 494C620.7 494 619.9 494.2 618.4 496.5C617.5 497.9 617 499.4 617.4 499.7C618.8 501.2 630 501.1 638.7 499.6C656.6 496.5 674.1 489.5 675.3 485C675.9 482.6 674 482.5 667 484.4Z" fill="white"/>
<path d="M588.6 597.5C586 599.9 584.7 604.3 587.3 602.2C588.6 601.1 592.4 595 591.7 595C591.5 595 590.1 596.1 588.6 597.5Z" fill="white"/>
<path d="M576.9 638.7C575.6 640.3 575.7 640.4 577.3 639.1C578.2 638.4 579 637.6 579 637.4C579 636.6 578.2 637.1 576.9 638.7Z" fill="white"/>
<path d="M626.8 620.2C625.4 622 623.8 624.5 623.1 625.8C622 627.9 622.1 628 624.4 627.4C626.6 626.9 627 627.2 627.8 630.2C628.6 633.2 628.7 632.7 629.4 625.7C629.8 621.4 630 617.6 629.7 617.4C629.5 617.1 628.2 618.4 626.8 620.2Z" fill="white"/>
<path d="M515.1 630.6C512.3 632.9 508 639.6 508 641.6C508 642.9 513.1 637.6 516.2 633.2C519.8 628 519.4 627 515.1 630.6Z" fill="white"/>
<path d="M537.2 634.5C534.4 637.5 530.7 640.6 529 641.5C526.6 642.7 526 643.7 526 646.3L526.1 649.5L529.3 645.9C539.6 634.1 543.2 629.9 542.8 629.5C542.6 629.2 540 631.5 537.2 634.5Z" fill="white"/>
<path d="M522.1 637.5C517.5 642.3 513.2 649.5 514.2 650.6C514.4 650.8 516.8 649.1 519.5 646.9C523.1 643.9 524.8 641.6 526.1 637.7C527.1 634.9 527.7 632.4 527.6 632.2C527.4 632.1 525 634.5 522.1 637.5Z" fill="white"/>
<path d="M517.7 657.8C512.2 663.3 511 665.1 511 667.8C511 672.5 514.4 672.3 516 667.5C516.6 665.6 517.6 664.2 518 664.5C518.5 664.8 519.4 664.2 519.9 663.2C521.2 660.7 525.1 651 524.7 651C524.6 651 521.4 654 517.7 657.8Z" fill="white"/>
<path d="M525.4 660.7C523.3 662.1 521.1 663.6 520.7 664C519.7 664.9 522.5 670.8 525.1 673.2C526.8 674.9 527 674.8 528.9 672.1C531.1 669.1 531.9 659.7 530.2 658.6C529.7 658.3 527.6 659.3 525.4 660.7Z" fill="white"/>
<path d="M514.3 679.2C511.7 681.9 508.1 689.7 508 692.5C508 694 508.9 693.6 512.4 690.1L516.9 685.7L517.2 690.6L517.5 695.5L521.3 688.1C523.3 684.1 525 679.9 525 678.9C525 677.4 524.1 678 521.3 681.2L517.5 685.3L517 681.1L516.5 676.8L514.3 679.2Z" fill="white"/>
<path d="M506.2 717.5C504.5 721.2 504.8 722 506.6 718.7C507.5 717.1 508 715.6 507.7 715.4C507.5 715.2 506.8 716.1 506.2 717.5Z" fill="white"/>
<path d="M503.2 724.5C501.5 728.2 501.8 729 503.6 725.7C504.5 724.1 505 722.6 504.7 722.4C504.5 722.2 503.8 723.1 503.2 724.5Z" fill="white"/>
<path d="M290.6 911.1C289.1 912.3 288.1 913.4 288.4 913.7C289.1 914.4 295 911.1 295 910C295 908.4 293.5 908.8 290.6 911.1Z" fill="white"/>
<path d="M314.6 913C313.2 914.7 311.6 917.7 311 919.8C310 923.7 309.7 926.7 310.5 925.9C311.2 925.1 318 910 317.6 910C317.4 910 316 911.4 314.6 913Z" fill="white"/>
<path d="M283 918C281.6 919.1 281 920 281.6 920C282.3 920 283.8 919.1 285.1 918C288.2 915.5 286.3 915.4 283 918Z" fill="white"/>
<path d="M337.2 928.2C336.1 931.1 334.9 934.6 334.6 936C333.2 941.2 337 934.7 338.6 929.2C340.7 922.1 339.7 921.4 337.2 928.2Z" fill="white"/>
<path d="M323.6 934.4C321.7 938.2 320.5 942.2 320.3 945.9L320 951.5L323.5 942C327.8 930.5 327.9 925.9 323.6 934.4Z" fill="white"/>
<path d="M290.5 932.4C285.2 934.8 274 943.5 274 945.1C274 945.6 274.7 946 275.5 946C276.3 946 277 946.4 277 947C277 949 278.5 947.9 280.8 944.5C282.3 942.2 284.9 940.1 288.3 938.6C291.7 937.1 294.1 935.2 295.3 933.1C297.5 929.4 297 929.3 290.5 932.4Z" fill="white"/>
<path d="M302.4 942.9C301.5 945.1 300.7 947 300.6 947C300.5 947 298.2 946.3 295.6 945.4L290.8 943.7L288.6 946.4C286.1 949.5 280 951.6 278.9 949.8C278 948.3 278 948.4 275.7 953.3L274 957.2L277.2 956.5C279 956.1 281.3 955.6 282.3 955.4C284.1 954.8 284.7 956.5 283 957.5C280.3 959.2 282.5 959.6 286.1 958.2C290.3 956.6 290.3 956.6 287.6 955.7C284.3 954.6 284.2 951.3 287.4 949.8C291.3 948.1 293 949.4 293 953.9C293 956.1 292.6 959 292.1 960.3L291.2 962.7L301.7 963.4C307.6 963.7 312.6 963.8 312.8 963.5C313.1 963.2 312.5 961.2 311.5 958.9C309.9 955.6 309.3 955 307.6 955.5C306.4 955.9 304 956.4 302.1 956.7C298.3 957.3 298.3 957.9 302.6 946C305.2 938.9 305 936.4 302.4 942.9Z" fill="white"/>
<path d="M219.5 1112.9C218.5 1114.7 221.6 1118.8 226.7 1122.3C229.3 1124.1 232.6 1126.5 234.1 1127.8C238 1131 242.8 1141.4 243.6 1148.2L244.3 1153.9L241.1 1152.7C238.5 1151.7 238 1151 238 1148.2C238 1145.8 237.1 1144 235.1 1141.9C231.4 1138.3 229.4 1138.2 228.2 1141.7C227.5 1144 227.8 1145.3 229.8 1148.8C235.1 1158.1 230.8 1153.2 221 1139C215.4 1130.7 210.6 1124.1 210.3 1124.3C209.6 1125.1 216.9 1145.9 220.5 1152.9C227 1166 236.2 1172.6 244.8 1170.4C250 1169.1 251.2 1166 251.2 1154.1C251.2 1138.2 244.8 1122.5 235.4 1115.4C232.7 1113.3 230.4 1112.5 226 1112.2C222.3 1111.9 220 1112.2 219.5 1112.9Z" fill="white"/>
<path d="M335.1 859.3C332.1 860.4 330.2 861.6 330.9 861.8C332.7 862.4 339.8 860 341.1 858.3C342.6 856.6 341.7 856.8 335.1 859.3Z" fill="white"/>
<path d="M294.2 483C285.8 501.3 275.2 523.7 270.4 533.3C265.1 543.7 262 553.4 262 559.5V562.5L264.4 558.9C273 546.2 290.5 506.2 296 486.7C298.8 476.5 298 474.8 294.2 483Z" fill="white"/>
<path d="M387.5 520.6C384.4 523.3 384.2 523.7 386.6 522.1C389.4 520.3 392.8 517 391.9 517C391.7 517 389.7 518.6 387.5 520.6Z" fill="white"/>
<path d="M398 522.5C398 523.3 398.4 524 398.9 524C399.4 524 400.3 523.3 401 522.5C402 521.2 401.9 521 400.1 521C398.9 521 398 521.6 398 522.5Z" fill="white"/>
<path d="M372.3 543.9C365 549.8 340 575.6 343.9 573.3C350.2 569.5 369.5 554.1 374.9 548.6C378.5 545 380.1 542.6 379.7 541.6C378.8 539.2 377.7 539.6 372.3 543.9Z" fill="white"/>
<path d="M331.2 563.5C329.5 564.9 325.8 568.8 322.9 572.3C318 578.1 318.2 577.9 326.3 570C331.1 565.4 335 561.4 335 561.3C335 560.6 333.9 561.2 331.2 563.5Z" fill="white"/>
<path d="M335.5 580.4C330.9 584 328.4 584.4 326.7 582C325.3 579.9 325.2 580 323.3 583.2C320.9 587.1 310.9 599.1 305.9 604L302.3 607.5L305.6 609.7L308.9 611.8L313.6 605.7C316.2 602.3 323.1 594.7 328.9 588.7C334.7 582.8 339.2 578 338.9 578C338.7 578 337.2 579.1 335.5 580.4Z" fill="white"/>
<path d="M306 592.4C301.7 597.1 301.2 597.9 303.8 596.1C307 593.9 312.6 587.3 311.9 586.6C311.7 586.4 309 589 306 592.4Z" fill="white"/>
<path d="M281.1 620.5C270.7 631.9 266.2 638.2 263.6 645.2C262.7 647.7 259.7 652.7 257.1 656.2C252.1 662.8 248.5 668.9 249.3 669.6C250.2 670.5 261.6 658 270.3 646.5C282.3 630.7 289.6 623 292.7 623C294.1 623 295 623.6 295 624.5C295 626.5 296.6 626.4 297.4 624.4C298.2 622.2 298.2 622 296.5 622C294.9 622 291.8 616.7 291.4 613.1C291.2 611.8 291 610.7 290.8 610.6C290.6 610.4 286.3 614.9 281.1 620.5Z" fill="white"/>
<path d="M418.3 715.1C405.7 723.4 404.4 724.5 408.4 723.6C411.7 722.8 424.5 714.4 427.9 710.6C429.3 709.2 430.1 708 429.8 708C429.5 708 424.3 711.2 418.3 715.1Z" fill="white"/>
<path d="M355.7 718.7C354.4 720.8 352.8 723.6 352.1 725L350.9 727.5L352.7 725.1C355.5 721.3 359.2 715 358.6 715C358.3 715 357 716.7 355.7 718.7Z" fill="white"/>
<path d="M345 720.5C344.3 721.4 344 722.3 344.3 722.6C344.6 722.9 345.3 722.2 346 721.1C347.3 718.6 346.8 718.4 345 720.5Z" fill="white"/>
<path d="M421.3 727.8C416.8 730.4 413.3 732.6 413.5 732.8C414.5 733.8 423.9 729.6 426.8 726.9C428.7 725.2 430 723.7 429.8 723.5C429.7 723.4 425.8 725.3 421.3 727.8Z" fill="white"/>
<path d="M332 739.2C321.8 751.6 320.7 753.2 325 749.6C329.4 746 341.5 729.9 339.8 730C339.6 730 336.1 734.1 332 739.2Z" fill="white"/>
<path d="M356 735C354.8 736.6 354.1 738 354.4 738C354.6 738 355.8 736.6 357 735C358.2 733.3 358.9 732 358.6 732C358.4 732 357.2 733.3 356 735Z" fill="white"/>
<path d="M341.5 756.2C339.1 759.9 339 760.2 340.9 758.5C343.4 756.3 345.4 753.1 344.7 752.4C344.5 752.2 343 753.9 341.5 756.2Z" fill="white"/>
<path d="M302.2 769.8C293.9 777.6 291.7 780.7 296.8 777.5C302 774.2 311.9 763.6 310.8 762.5C310.6 762.2 306.7 765.5 302.2 769.8Z" fill="white"/>
<path d="M322.6 765.5C321.7 768.1 321.9 768.7 323.1 766.7C323.7 765.7 324 764.6 323.7 764.4C323.5 764.1 323 764.6 322.6 765.5Z" fill="white"/>
<path d="M321.7 771.7C320.8 772.6 320.8 777 321.8 777C325 776.9 327 775.5 327 773.4C327 771.6 326.5 771 324.7 771C323.4 771 322 771.3 321.7 771.7Z" fill="white"/>
<path d="M317.4 779.4C316.4 780.2 315.8 781.1 316.1 781.4C316.4 781.7 317.5 781.1 318.5 780C320.6 777.7 320.2 777.4 317.4 779.4Z" fill="white"/>
<path d="M236.1 787C232.8 790.4 230 793.6 230 794.2C230 794.7 227.3 798.8 224 803.2C218.1 811 216.6 815 219.5 815C223.2 815 220.1 818.4 208.3 827.1C201.2 832.3 191.9 839.6 187.6 843.5C183.2 847.3 176.8 852.9 173.3 855.8C168.2 860.1 167 861.6 167 864C167 866.6 167.4 867 169.8 867C172.6 867 176.2 864.9 187 857C190 854.8 194.2 852.5 196.3 851.8C198.4 851.2 200 850 200 849.2C200 848.4 205.4 842.2 211.9 835.6C218.7 828.7 224.1 822.3 224.5 820.8C225 818.8 226 818 228.6 817.6C230.5 817.2 232 816.5 232 816C232 815.6 234.3 812.7 237.1 809.6C242.2 804 246.6 800.8 250.9 799.5L253.3 798.8L251 802.4C249.8 804.5 248.9 806.3 249.1 806.5C249.3 806.7 251.6 804.9 254.2 802.7L258.9 798.5L250.6 789.7L242.3 780.9L236.1 787Z" fill="white"/>
<path d="M309.5 785.8C306.1 787.9 303.5 790.8 304.2 791.6C305.2 792.5 309.5 790.2 312.4 787.1C315.8 783.6 314.3 782.9 309.5 785.8Z" fill="white"/>
<path d="M300 787C299.4 788.1 299.2 789 299.4 789C299.7 789 300.4 788.1 301 787C301.6 785.9 301.8 785 301.6 785C301.3 785 300.6 785.9 300 787Z" fill="white"/>
<path d="M293.5 796.7C291.3 799.3 290.2 801 291 800.5C294 798.7 302 792.8 302 792.4C302 792.2 301 792 299.8 792C298.3 792.1 296 793.8 293.5 796.7Z" fill="white"/>
<path d="M241.9 810.9C240.6 812 239.7 813.1 240 813.3C240.3 813.6 241.9 812.7 243.5 811.4C245.2 810.1 246 809 245.4 809C244.7 809 243.2 809.9 241.9 810.9Z" fill="white"/>
<path d="M227.4 821.2L225.5 823.5L227.8 821.6C229.9 819.8 230.5 819 229.7 819C229.5 819 228.5 820 227.4 821.2Z" fill="white"/>
<path d="M340 837.6C321.9 843 317.4 844 303.7 845.9C295.9 847.1 288.2 848.4 286.5 848.9L283.5 849.8L287.4 849.9C300.8 850.2 345.1 840.3 349.4 836C350.8 834.6 349.7 834.8 340 837.6Z" fill="white"/>
<path d="M223 865.4C223 868.4 221.5 869.6 216.7 870.5C212.8 871.3 210.4 874 211.4 876.6C211.7 877.4 212.8 878 213.9 878C216.6 878 217.2 879.3 216 882.5C214.3 887 216.6 884.3 222.6 874.9C228.1 866.2 228.3 865.7 226.5 864.4C223.8 862.4 223 862.7 223 865.4Z" fill="white"/>
<path d="M238.8 887C235.5 888.8 230 894.6 230 896.3C230 896.7 231.4 896.7 233.2 896.3C235.7 895.8 236.2 896 235.8 897.1C235.4 897.9 234.4 900.3 233.5 902.5L231.8 906.5L237 901.5L242.1 896.5L239.3 896L236.5 895.4L239.3 893.6C241.7 892 245 887.3 245 885.5C245 884.5 242.5 885.1 238.8 887Z" fill="white"/>
<path d="M207 900.6C203.4 907 200.3 912.7 200.1 913.2C199.9 913.8 205.2 909.8 211.9 904.4C218.5 899 224 894.2 224 893.8C224 892.5 220.1 891.9 218.1 892.9C214.7 894.8 213.2 894.3 213.8 891.5C214 890.1 214.1 889 213.9 889C213.7 889 210.6 894.2 207 900.6Z" fill="white"/>
<path d="M222.5 901.2C219.2 903.4 215 906.6 213.2 908.3C210 911.3 209.9 911.8 210.4 916.4C210.7 919.1 211.1 921.5 211.3 921.7C211.6 921.9 213.8 921.1 216.3 919.9C220.8 917.7 220.8 917.7 218.7 916C216.6 914.3 216.6 914.2 218.5 911.4C219.5 909.8 222.3 906.1 224.8 903.2C227.3 900.3 229.1 897.8 228.9 897.6C228.7 897.4 225.8 899 222.5 901.2Z" fill="white"/>
<path d="M187 904.5C184.3 907.4 182.4 918 184.5 918C187.6 918 192.5 908.3 191.6 904.4C190.8 901.4 189.9 901.4 187 904.5Z" fill="white"/>
<path d="M197.2 918.6C194.7 923.5 191 935.5 191.1 938.4C191.1 940.3 191.2 940.3 192.1 938C192.7 936.6 193.6 933.3 194.2 930.7C195.1 926.4 195.7 925.6 200.1 923.1L205 920.3L202.1 917.6L199.2 914.8L197.2 918.6Z" fill="white"/>
<path d="M206 936.2C202.8 941.3 200.8 949.4 201.6 953.5C202.6 959.2 204.7 956 206.5 946C209.2 930.9 209.2 931 206 936.2Z" fill="white"/>
<path d="M69.5 1193C67.7 1196.9 67.8 1197.2 69.5 1203.1C71.2 1208.5 71.5 1209 72.7 1207.5C73.8 1205.8 74 1205.9 75 1208.4C75.5 1209.9 76.7 1214.3 77.5 1218.3C79.4 1227.2 80.4 1228.4 83.4 1224.7C86 1221.5 86.6 1221.4 87.3 1223.9C87.5 1224.9 88.8 1226.3 90 1227C92.2 1228.2 92.3 1228.2 91.8 1223.2C91.4 1219 90.5 1217.3 86.3 1212.4C80.3 1205.5 78 1201.2 78 1197.2C78 1194.7 73.7 1189 71.8 1189C71.5 1189 70.5 1190.8 69.5 1193Z" fill="white"/>
<path d="M45 1197.1C45 1202.2 50.6 1212.2 60.1 1223.9C64.9 1229.9 74.9 1243.6 82.4 1254.5C96.1 1274.4 98.2 1276.3 96.5 1267.2C95.1 1259.2 86 1245.9 69.1 1226.7C60.5 1217 55.2 1209.1 54.4 1204.8C53.5 1200.3 51.8 1197.8 48.1 1195.7L45 1193.9V1197.1Z" fill="white"/>
<path d="M92 1241.6C94.9 1247.3 101 1254.6 101 1252.4C101 1251.2 96.3 1244.2 92.1 1239.4L88.8 1235.5L92 1241.6Z" fill="white"/>
<path d="M105.9 1258.4C107.8 1260.4 109.6 1261.7 109.9 1261.5C110.7 1260.6 106.4 1255.5 104.4 1255.2C102.9 1254.9 103.3 1255.6 105.9 1258.4Z" fill="white"/>
</svg>
