<?xml version="1.0" standalone="no"?>
<!DOCTYPE svg PUBLIC "-//W3C//DTD SVG 20010904//EN"
 "http://www.w3.org/TR/2001/REC-SVG-20010904/DTD/svg10.dtd">
<svg version="1.0" xmlns="http://www.w3.org/2000/svg"
 width="1121.000000pt" height="1280.000000pt" viewBox="0 0 1121.000000 1280.000000"
 preserveAspectRatio="xMidYMid meet">
<metadata>
Created by potrace 1.15, written by Peter Selinger 2001-2017
</metadata>
<g transform="translate(0.000000,1280.000000) scale(0.100000,-0.100000)"
fill="#000000" stroke="none">
<path d="M6790 12793 c-453 -19 -609 -27 -925 -43 -203 -11 -561 -27 -795 -35
-234 -8 -481 -20 -550 -25 -331 -28 -459 -91 -508 -250 -15 -48 -17 -107 -17
-490 1 -420 2 -445 33 -739 18 -167 34 -307 37 -310 2 -4 11 -115 20 -247 9
-131 20 -270 24 -307 l7 -68 -28 6 c-22 5 -28 3 -28 -10 0 -9 7 -23 15 -31 9
-9 15 -33 15 -57 0 -23 9 -159 21 -302 24 -291 21 -357 -25 -425 -14 -21 -81
-84 -149 -138 -70 -57 -198 -178 -296 -279 -169 -176 -175 -181 -294 -248
-229 -127 -301 -186 -350 -289 -16 -32 -53 -153 -83 -270 -49 -192 -62 -227
-138 -386 -46 -96 -89 -191 -95 -211 -16 -48 -30 -139 -22 -139 3 0 76 158
160 350 85 193 157 350 159 350 3 0 2 -34 -2 -76 -8 -88 4 -92 30 -11 11 34
18 94 20 172 1 66 2 128 3 138 2 43 80 104 232 182 172 88 247 144 407 309
l113 115 -15 29 c-15 28 -14 29 27 64 24 19 54 52 67 72 30 43 49 51 112 47
38 -2 58 3 101 28 30 17 58 31 63 31 5 0 10 -17 11 -38 2 -31 -3 -41 -30 -64
l-32 -27 49 -1 49 0 -8 -47 c-4 -27 -10 -294 -14 -595 -3 -300 -9 -549 -12
-552 -10 -10 -86 46 -104 77 -11 19 -20 59 -23 103 -4 65 -8 76 -33 99 -29 25
-37 45 -20 45 5 0 7 9 4 20 -7 26 -19 18 -54 -38 -23 -36 -29 -58 -29 -99 0
-72 27 -123 139 -258 50 -60 91 -117 91 -128 0 -10 -14 -32 -31 -49 -28 -28
-28 -30 -7 -24 13 4 53 9 89 13 59 5 73 3 123 -22 57 -28 57 -28 219 -22 340
11 489 59 1140 363 443 207 598 268 751 295 80 13 147 5 125 -16 -17 -16 -136
-67 -233 -101 -44 -15 -121 -58 -208 -116 -157 -104 -157 -105 -138 -221 30
-187 112 -285 258 -305 56 -8 113 -34 95 -45 -4 -3 -37 -14 -73 -25 -346 -108
-585 -184 -589 -187 -2 -3 9 -9 25 -15 62 -23 60 -21 36 -31 -59 -23 -204 -30
-370 -19 -272 18 -403 -14 -587 -145 -130 -92 -186 -177 -192 -295 -3 -41 -12
-94 -20 -117 -8 -23 -14 -46 -12 -52 2 -5 28 7 58 27 46 31 57 44 68 84 9 31
24 54 44 70 42 30 113 99 125 119 10 18 174 82 252 98 63 13 140 15 126 2 -5
-4 -82 -41 -171 -82 -89 -40 -161 -74 -159 -76 1 -1 81 20 177 47 96 28 178
50 184 50 5 0 -183 -103 -419 -230 -236 -126 -431 -228 -433 -226 -7 7 51 56
66 56 9 0 22 4 29 9 11 7 9 13 -10 33 -12 13 -27 32 -33 41 -9 16 -22 14 -148
-29 -115 -38 -137 -49 -131 -63 28 -68 29 -72 14 -82 -11 -7 -5 -8 20 -3 49
10 89 7 106 -7 21 -18 18 -24 -26 -44 -58 -26 -59 -36 -2 -15 26 9 67 20 91
24 l43 7 -33 -42 c-38 -48 -116 -112 -171 -140 -21 -11 -82 -31 -136 -45 -93
-25 -147 -49 -171 -78 -9 -10 10 -9 89 4 119 20 119 13 -1 -56 -76 -44 -149
-106 -131 -112 9 -3 44 9 140 47 28 11 52 17 52 13 0 -22 -58 -87 -107 -119
-31 -21 -63 -48 -71 -61 -15 -23 -15 -23 11 -11 15 7 29 10 31 8 10 -10 -17
-108 -44 -161 -17 -32 -28 -58 -25 -58 3 0 29 38 59 84 44 68 79 105 135 143
2 1 -9 19 -24 39 l-27 36 28 30 c36 37 135 109 189 135 22 11 64 26 93 34 82
20 59 51 -24 32 -24 -6 -44 -8 -44 -6 0 26 347 293 381 293 9 0 6 -22 -8 -73
-2 -9 -18 -24 -34 -32 -16 -9 -41 -35 -56 -58 -15 -23 -73 -90 -130 -148 -71
-73 -110 -122 -127 -160 -29 -64 -42 -119 -28 -119 5 0 38 19 73 42 85 57 236
207 289 288 l42 65 -6 -55 c-10 -79 -39 -137 -99 -199 -51 -52 -52 -53 -21
-47 31 7 31 7 31 -38 1 -41 -3 -48 -50 -93 -29 -27 -68 -61 -87 -77 l-35 -28
35 20 c48 28 110 44 110 29 0 -7 -13 -37 -28 -67 -19 -39 -38 -61 -64 -75 -32
-17 -36 -23 -31 -50 11 -67 -52 -160 -162 -243 l-30 -22 54 20 c29 12 55 19
57 17 6 -6 -73 -122 -102 -149 -16 -15 -85 -54 -154 -86 -105 -50 -209 -112
-188 -112 3 0 65 29 139 64 74 35 135 60 137 55 7 -18 -44 -94 -84 -124 -41
-31 -276 -140 -382 -176 -59 -20 -108 -24 -130 -10 -10 6 2 18 41 44 30 20 67
41 82 47 34 13 117 61 113 66 -2 1 -37 -6 -77 -17 -41 -10 -77 -17 -80 -14 -2
3 5 25 16 48 20 41 29 47 187 125 91 44 166 83 166 85 0 2 -50 -16 -111 -40
-61 -25 -112 -43 -115 -40 -7 6 54 118 79 145 11 12 43 29 70 37 50 15 122 54
114 62 -3 2 -55 -11 -116 -30 -61 -19 -111 -33 -111 -30 0 9 41 62 71 93 25
24 29 35 24 59 -10 45 53 117 211 238 l29 23 -28 -10 c-38 -13 -36 -15 -54 27
l-15 38 -32 -37 c-17 -20 -55 -83 -85 -140 -30 -56 -89 -150 -131 -208 -78
-105 -140 -201 -140 -214 0 -4 29 13 65 39 36 25 65 42 65 38 0 -4 -17 -42
-38 -83 -32 -63 -46 -81 -102 -120 -43 -31 -68 -56 -75 -77 -14 -42 -24 -52
-146 -149 -125 -97 -234 -154 -360 -184 -89 -21 -186 -27 -159 -10 8 5 38 17
65 26 28 9 59 24 70 34 11 10 36 23 56 29 107 34 396 256 495 381 l43 54 -30
13 c-16 6 -29 17 -29 23 0 6 28 59 61 118 77 133 77 135 40 92 -17 -19 -44
-61 -61 -93 -84 -155 -331 -391 -512 -487 -55 -30 -56 -31 -51 -68 l5 -38 -73
-12 c-97 -17 -129 -39 -183 -126 -25 -41 -46 -76 -46 -80 0 -3 112 -6 250 -6
l250 0 -6 28 c-5 26 0 31 58 68 64 40 730 364 737 358 2 -1 -11 -23 -29 -47
-36 -51 -125 -121 -187 -148 -24 -10 -43 -20 -43 -23 0 -2 17 -14 37 -26 l38
-22 -36 -19 c-20 -10 -71 -32 -112 -48 -41 -17 -99 -42 -129 -56 -37 -19 -75
-28 -123 -32 l-70 -4 33 29 c18 16 51 35 73 41 80 24 31 20 -94 -7 l-127 -28
22 -22 c12 -12 19 -24 16 -27 -11 -12 -147 -54 -222 -69 -54 -12 -134 -16
-286 -16 l-211 0 -34 -72 c-19 -40 -35 -78 -35 -84 0 -7 13 -17 29 -22 l28
-10 7 59 c10 102 14 110 44 97 41 -18 281 -14 412 5 146 22 343 70 424 102 34
14 75 25 89 25 15 0 55 11 89 25 67 27 93 31 103 15 11 -18 -12 -36 -100 -81
-47 -23 -85 -44 -85 -45 0 -1 26 0 58 3 l57 5 -35 -23 c-74 -48 -270 -133
-410 -180 -247 -81 -434 -109 -514 -75 -31 13 -33 17 -27 48 6 30 11 34 49 39
69 9 61 20 -13 17 l-70 -3 -5 -95 -5 -95 -18 27 c-11 15 -25 47 -32 70 l-14
43 -1 -50 -1 -50 -60 -29 -61 -28 -29 21 c-37 27 -39 27 -39 -9 0 -20 -14 -50
-38 -83 -69 -94 -66 -98 25 -37 71 48 133 64 133 33 0 -10 -6 -25 -12 -32 -11
-10 -7 -11 17 -6 17 4 47 15 68 25 20 10 37 14 37 9 0 -13 -69 -61 -118 -83
-32 -15 -42 -25 -42 -43 0 -12 2 -23 4 -23 2 0 50 23 105 52 56 28 103 49 106
46 10 -9 -57 -90 -87 -106 -39 -21 -116 -89 -130 -115 -9 -18 -8 -19 18 -13
15 4 45 23 66 41 21 19 49 37 63 41 15 4 25 13 25 24 0 11 12 22 31 29 47 16
47 14 6 -20 -28 -23 -37 -38 -37 -62 -1 -29 -2 -30 -14 -14 -12 16 -16 10 -39
-55 -14 -40 -33 -96 -42 -124 -18 -59 -43 -89 -89 -108 -20 -8 -52 -38 -76
-69 -36 -49 -78 -77 -113 -77 -27 0 31 175 92 280 27 46 48 86 46 89 -2 2 -22
-11 -45 -29 -55 -44 -87 -102 -95 -175 -9 -81 -19 -113 -75 -235 -36 -79 -50
-122 -54 -173 -8 -78 8 -92 18 -15 9 66 30 116 64 151 31 33 110 82 119 74 5
-6 -100 -483 -115 -520 -5 -13 -46 74 -141 297 l-134 315 -35 -2 c-34 -2 -35
-2 -52 62 -10 35 -27 75 -39 90 -50 62 -56 75 -59 143 l-4 68 32 0 c18 0 50
10 71 22 30 17 39 28 39 48 0 23 -4 27 -24 23 -18 -4 -24 0 -28 19 -4 22 2 28
54 51 32 14 58 23 58 20 0 -2 -11 -19 -25 -37 -31 -41 -32 -56 -2 -56 12 0 31
-3 42 -6 16 -4 33 13 88 90 37 52 67 97 67 100 0 3 -34 -13 -76 -36 -41 -22
-77 -38 -80 -35 -11 11 69 86 121 113 32 17 55 36 55 45 0 19 68 69 93 69 9 0
24 12 34 26 9 14 40 43 68 64 29 21 55 48 58 61 5 20 3 21 -34 15 l-41 -7 23
33 c47 67 220 213 272 231 13 4 -37 87 -53 87 -5 0 -51 -35 -101 -77 -156
-131 -172 -145 -232 -184 -57 -37 -58 -38 -35 -53 17 -12 24 -13 29 -4 5 7 11
9 15 6 12 -13 -142 -148 -169 -148 -5 0 12 25 39 56 34 41 42 55 27 50 -11 -4
-40 -12 -64 -19 -34 -10 -48 -20 -60 -46 -16 -35 -49 -63 -156 -134 -35 -23
-66 -49 -69 -59 -3 -10 -22 -26 -42 -35 -36 -15 -36 -16 -12 -22 18 -5 27 -3
32 8 4 9 7 -8 7 -36 1 -29 4 -53 9 -53 4 0 39 24 77 53 39 29 92 66 119 82
l48 28 -16 -30 c-21 -41 -107 -115 -175 -152 -31 -16 -70 -44 -88 -61 l-31
-31 -29 43 c-104 154 -184 565 -171 873 l5 112 158 179 158 179 248 665 c137
366 256 682 264 703 l16 39 -27 -21 c-15 -12 -36 -21 -48 -21 -11 0 -26 -4
-32 -8 -7 -4 -62 -170 -123 -368 -205 -669 -292 -895 -389 -1015 -199 -248
-180 -229 -229 -229 -71 0 -115 -18 -200 -82 -77 -58 -161 -108 -183 -108 -8
0 -9 11 -5 29 10 48 -11 109 -45 126 -90 47 -268 -25 -711 -287 -108 -64 -219
-128 -247 -142 l-51 -26 14 -41 c19 -52 19 -77 1 -148 -8 -31 -22 -114 -31
-186 -9 -71 -21 -135 -26 -141 -12 -14 1 -146 16 -160 15 -16 56 -169 105
-396 59 -272 105 -350 228 -384 l58 -16 19 -67 c44 -159 178 -458 255 -571 81
-119 103 -116 108 18 4 103 9 125 23 100 17 -31 185 -466 273 -709 72 -200 98
-280 152 -464 4 -14 3 -17 -4 -10 -13 13 -253 455 -297 549 -19 39 -51 87 -71
106 l-36 35 7 -50 c19 -137 69 -277 197 -548 113 -240 129 -277 120 -277 -13
0 -105 101 -177 192 -46 59 -81 94 -106 105 -33 16 -39 23 -45 62 l-7 43 -39
-46 c-22 -25 -43 -46 -47 -46 -4 0 -36 53 -70 118 -78 146 -85 153 -78 82 7
-76 65 -216 154 -371 l75 -131 -26 -59 -26 -60 79 -112 c43 -62 87 -132 98
-158 11 -25 41 -73 67 -108 25 -35 46 -69 46 -77 0 -38 56 -19 83 29 l18 31
32 -36 c18 -19 64 -57 102 -83 39 -27 80 -57 93 -69 14 -12 34 -20 50 -18 28
3 122 -49 122 -67 0 -12 69 -55 76 -48 7 7 -17 52 -72 138 -51 78 -97 174 -92
189 3 10 216 -218 330 -353 40 -46 58 -59 110 -76 89 -30 120 -52 169 -117
l42 -57 81 6 c88 6 148 26 311 101 l100 46 33 67 c19 38 49 84 67 103 23 25
34 48 38 79 8 68 -11 212 -48 353 l-32 128 53 41 c100 77 170 200 200 349 13
67 15 114 11 220 -11 237 -71 451 -204 735 -89 189 -113 259 -113 328 0 79 29
119 158 222 61 50 149 130 193 178 62 67 98 96 148 121 36 19 107 69 156 111
111 96 144 117 242 156 154 61 298 165 500 360 115 111 146 136 165 132 17 -3
34 7 68 41 39 41 42 46 22 46 -21 0 -22 1 -8 28 8 15 46 60 84 100 56 58 84
99 136 200 63 123 71 132 197 257 192 190 257 296 369 605 29 80 63 165 75
190 13 25 81 113 152 196 155 182 183 219 258 349 101 175 184 236 440 325
157 54 352 148 402 194 l40 36 118 0 c114 0 120 1 209 38 50 22 100 42 111 46
11 4 94 11 185 16 153 9 179 13 366 63 205 55 228 65 351 152 l62 43 58 -13
c72 -17 213 -66 403 -137 222 -85 745 -255 839 -274 182 -36 316 -2 420 105
94 99 134 198 421 1056 385 1151 684 2073 754 2330 19 66 54 191 80 278 25 87
46 165 46 173 0 11 6 13 19 9 15 -5 24 1 36 25 9 17 13 35 10 40 -10 17 33
177 79 287 24 60 47 124 51 143 4 19 33 91 65 160 94 201 127 357 101 482 -14
66 -62 143 -108 174 -113 76 -999 386 -2373 832 -135 44 -331 109 -435 145
-217 75 -407 127 -468 127 -59 0 -118 -32 -155 -86 -33 -46 -87 -78 -124 -72
-14 2 -29 26 -54 83 -43 99 -92 149 -165 164 -45 10 -348 12 -529 4z m474 -53
c74 -17 112 -60 118 -134 l3 -40 -49 3 c-27 1 -81 11 -120 22 -39 11 -114 31
-167 46 -90 24 -98 28 -113 60 -9 18 -16 36 -16 38 0 13 290 18 344 5z m-730
-30 c75 -12 83 -20 66 -62 -22 -54 -39 -68 -86 -68 -114 0 -269 37 -288 69
-15 23 122 66 219 70 17 0 57 -3 89 -9z m-839 -40 c17 -28 6 -69 -32 -117 -22
-28 -46 -65 -53 -83 -13 -32 -14 -32 -64 -26 -28 4 -136 22 -241 41 -224 41
-361 56 -424 48 -93 -12 -165 -70 -176 -141 -3 -20 -19 -80 -35 -132 -27 -86
-59 -151 -172 -347 -43 -74 -74 -153 -83 -214 -8 -53 11 -109 52 -151 27 -28
117 -68 153 -68 10 0 21 -4 24 -9 3 -5 -8 -55 -25 -110 l-31 -102 20 -22 c50
-55 52 -77 44 -412 -8 -321 -7 -317 -95 -361 -66 -33 -84 -50 -110 -99 -35
-67 -28 -157 23 -306 47 -140 88 -230 123 -274 l23 -30 -17 -308 c-9 -169 -20
-314 -23 -322 -3 -8 -28 -26 -55 -40 -59 -30 -66 -48 -65 -195 0 -82 3 -103
27 -155 15 -33 46 -83 68 -113 l41 -54 -11 -351 c-7 -194 -14 -379 -17 -412
l-5 -60 -87 6 c-85 5 -148 25 -172 54 -13 16 -7 -85 -125 2079 -47 863 -84
1573 -83 1577 2 5 20 -3 41 -18 37 -26 41 -35 67 -140 12 -46 25 -57 84 -68
l39 -8 -7 72 c-6 62 -4 82 20 155 l27 84 -43 75 c-23 42 -56 90 -73 108 l-30
33 -34 -39 c-20 -24 -41 -64 -53 -106 -12 -38 -25 -71 -30 -74 -11 -7 -35 72
-51 170 -29 170 -8 588 36 733 22 74 85 136 157 156 37 10 248 25 693 49 742
40 752 40 760 27z m1285 -80 c63 -24 173 -58 244 -76 114 -30 204 -64 244 -92
11 -7 8 -28 -18 -110 l-32 -101 -72 -21 c-86 -26 -161 -66 -187 -98 -35 -45
-26 -105 31 -202 45 -77 56 -100 47 -100 -2 0 -41 14 -88 31 -103 38 -166 37
-228 -4 l-41 -27 0 -83 c1 -158 50 -207 189 -191 51 6 75 13 74 21 -2 7 7 18
19 24 17 9 20 9 15 -2 -86 -212 -214 -568 -282 -785 -31 -98 -39 -115 -53
-108 -9 4 -60 9 -112 11 -90 5 -98 3 -150 -24 -162 -85 -117 -282 82 -355 32
-11 57 -26 55 -32 -2 -6 -44 -136 -93 -290 l-89 -278 -63 6 c-80 7 -113 -6
-170 -68 -98 -106 -95 -194 11 -277 27 -22 56 -43 65 -48 14 -8 12 -19 -15
-102 -53 -161 -153 -423 -167 -437 -7 -8 -40 -19 -71 -25 l-58 -12 -25 -73
c-33 -101 -27 -126 53 -210 53 -55 66 -64 75 -52 17 26 125 304 210 545 45
127 257 750 470 1385 688 2047 676 2013 775 2159 27 41 67 89 88 105 70 56
127 45 697 -134 601 -188 2428 -803 2509 -845 151 -76 207 -197 166 -355 -9
-36 -41 -126 -70 -200 -29 -74 -85 -241 -125 -370 -156 -511 -192 -623 -265
-835 -94 -273 -196 -602 -409 -1310 -178 -593 -209 -692 -431 -1360 -201 -606
-251 -702 -389 -754 -142 -53 -337 -14 -899 181 -998 345 -1837 605 -2017 623
l-55 5 118 -56 c64 -32 117 -61 117 -65 0 -28 -417 -33 -546 -6 -45 9 -99 23
-120 31 l-39 14 30 6 c148 34 374 129 526 223 35 22 127 79 203 127 77 47 145
86 152 86 6 0 43 -15 80 -32 98 -46 182 -50 255 -13 59 29 123 85 145 127 36
69 8 167 -80 286 -26 35 -45 66 -42 69 3 3 19 0 37 -7 24 -10 38 -28 64 -84
53 -117 95 -139 257 -140 l108 0 35 34 c59 57 104 131 117 191 11 55 11 56
-25 115 -68 112 -121 144 -248 152 -109 6 -124 2 -189 -50 l-53 -42 6 52 c7
57 29 103 120 246 32 49 57 93 57 97 0 4 -20 22 -45 39 -35 24 -61 33 -116 39
-38 4 -72 5 -73 2 -2 -3 -7 -53 -11 -111 -10 -154 -39 -280 -64 -280 -5 0 -21
19 -36 41 -15 23 -45 61 -67 85 l-40 43 -276 -3 c-238 -2 -291 -6 -378 -24
-169 -36 -326 -97 -624 -242 -157 -76 -311 -148 -344 -159 l-58 -22 6 45 c22
145 205 839 674 2551 110 402 246 901 302 1110 101 379 246 894 253 902 12 12
103 22 172 19 64 -3 103 -12 195 -46z m-775 -26 c132 -31 246 -57 253 -59 17
-6 16 -97 -3 -170 -31 -120 -78 -197 -205 -331 -128 -136 -180 -217 -180 -281
0 -51 19 -76 97 -125 53 -34 64 -45 59 -62 -3 -12 -72 -274 -153 -583 l-148
-562 -75 -6 c-41 -3 -82 -9 -90 -14 -31 -16 -90 -117 -106 -181 -21 -82 -15
-150 25 -332 17 -76 31 -165 31 -198 0 -42 -23 -148 -80 -367 -45 -170 -86
-323 -93 -341 -20 -57 -64 -100 -117 -116 -71 -21 -88 -33 -110 -75 -58 -115
-50 -335 17 -436 30 -45 30 -54 1 -175 -32 -133 -73 -201 -152 -249 -32 -20
-151 -58 -196 -63 -22 -3 -25 0 -22 27 6 50 379 2608 427 2926 25 163 72 484
105 715 33 230 72 487 86 569 76 459 139 566 324 550 36 -3 173 -31 305 -61z
m-1105 -109 c172 -18 324 -48 388 -75 57 -25 72 -51 72 -130 0 -57 -25 -93
-78 -116 -57 -24 -103 -63 -123 -108 -22 -48 -24 -134 -5 -188 l13 -37 -66
-35 c-105 -55 -131 -93 -131 -191 0 -43 5 -59 23 -75 41 -40 80 -54 149 -54
57 -1 68 -4 68 -18 0 -29 -38 -120 -80 -193 -34 -58 -40 -73 -31 -92 6 -12 22
-25 36 -29 23 -6 25 -10 25 -70 0 -56 -3 -67 -31 -98 -17 -20 -53 -52 -81 -73
-68 -50 -87 -94 -88 -203 l0 -85 -54 -28 c-79 -42 -136 -94 -162 -151 -29 -61
-30 -97 -5 -152 25 -54 53 -75 164 -119 50 -20 95 -40 99 -43 4 -4 -4 -70 -17
-147 -14 -77 -25 -143 -25 -147 0 -4 -31 -23 -70 -44 -38 -20 -88 -56 -111
-81 -41 -44 -41 -47 -36 -101 9 -86 50 -143 142 -197 16 -10 16 -20 6 -132
-14 -159 -37 -228 -110 -336 -57 -83 -81 -137 -81 -183 0 -12 18 -58 40 -102
22 -44 40 -90 40 -103 0 -25 -78 -629 -85 -666 -9 -42 -127 -83 -236 -83 -50
0 -51 0 -45 28 20 98 41 648 56 1497 5 308 15 866 22 1240 7 374 12 869 10
1100 -1 263 2 455 9 515 13 112 48 230 84 283 l26 37 72 0 c40 0 133 -7 207
-15z m-1681 -3721 c-18 -20 -41 -40 -50 -44 -26 -15 -99 -29 -99 -19 0 23 53
66 102 81 79 24 86 22 47 -18z m3478 -440 c89 -72 113 -193 61 -305 -49 -104
-111 -148 -299 -214 -194 -68 -461 -117 -534 -99 -33 8 -97 115 -120 199 -30
108 4 169 133 234 82 42 255 114 358 151 150 54 224 70 296 67 57 -2 72 -7
105 -33z m247 -209 c13 -35 -24 -65 -80 -65 -38 0 -26 31 21 57 48 27 51 27
59 8z m-799 -659 c-25 -20 -31 -22 -33 -9 -5 18 15 33 43 33 17 0 16 -3 -10
-24z m-1102 -187 c40 -7 76 -15 81 -19 10 -10 -68 -26 -199 -40 -109 -13 -214
-33 -258 -49 -26 -10 -28 -9 -25 11 4 28 69 61 172 88 84 22 132 24 229 9z
m16 -93 c-2 -3 -61 -16 -131 -30 -138 -28 -214 -57 -287 -109 -38 -28 -50 -31
-68 -23 -13 6 -23 14 -23 18 0 13 91 70 153 95 78 32 180 51 281 52 44 1 77
-1 75 -3z m337 -48 c-23 -13 -165 -24 -153 -12 8 9 80 21 137 22 30 1 32 0 16
-10z m-905 -81 c-14 -25 -50 -52 -59 -43 -3 4 10 22 28 41 36 38 51 39 31 2z
m1355 -48 c2 -4 -21 -25 -51 -48 -30 -23 -55 -44 -55 -46 0 -2 16 3 36 11 20
8 38 14 39 12 2 -2 -20 -41 -50 -86 -44 -67 -55 -93 -60 -140 -3 -31 -14 -79
-25 -106 -15 -37 -17 -53 -9 -69 40 -74 -79 -280 -237 -411 -119 -98 -144
-117 -144 -109 1 30 24 101 37 115 9 10 29 18 44 18 25 0 30 5 40 43 7 23 12
64 12 91 -1 36 9 68 33 120 45 92 43 108 -6 57 -28 -28 -40 -50 -40 -69 0 -16
-8 -37 -19 -46 -17 -16 -19 -16 -25 0 -9 24 12 81 32 86 13 4 21 24 31 82 27
163 64 236 215 428 l108 138 45 -32 c24 -18 46 -36 49 -39z m1150 5 c181 -51
271 -99 227 -122 -44 -23 -168 -62 -243 -76 -200 -38 -329 -7 -375 90 l-18 37
-13 -24 c-19 -35 -17 -93 4 -111 55 -49 157 -72 365 -84 112 -6 129 -5 140 10
13 17 299 136 328 136 36 0 16 -40 -39 -76 -68 -46 -150 -75 -227 -81 -84 -6
-91 -9 -74 -30 13 -15 9 -16 -39 -11 -61 6 -58 -2 13 -30 30 -12 44 -22 35
-25 -8 -3 -118 -11 -245 -17 -126 -6 -236 -13 -243 -16 -7 -2 -25 23 -44 61
-18 36 -36 65 -39 65 -17 0 -39 -34 -39 -60 0 -16 -3 -37 -6 -47 -4 -13 -3
-14 4 -5 7 10 16 7 42 -14 29 -25 31 -29 15 -40 -21 -15 -154 -48 -162 -40 -4
3 -2 31 4 61 5 30 7 55 3 55 -4 0 -17 -11 -30 -25 -29 -31 -44 -32 -57 -3 -9
20 -11 17 -22 -30 -7 -28 -17 -52 -22 -52 -19 0 -47 39 -53 76 -4 22 -13 57
-19 79 -11 38 -12 33 -17 -75 l-5 -115 -33 2 c-28 1 -34 -3 -38 -26 -6 -30
-52 -61 -90 -61 -27 0 -29 9 -14 59 15 52 6 48 -29 -12 -25 -45 -37 -55 -64
-60 -18 -3 -66 -28 -106 -56 -41 -28 -76 -49 -78 -47 -3 2 34 122 81 266 66
202 86 275 86 319 0 31 4 61 8 67 4 7 75 13 189 18 235 8 388 28 548 69 176
46 229 46 391 1z m-1591 -13 c-34 -15 -125 -39 -224 -58 l-24 -4 33 -34 c19
-19 32 -37 29 -39 -2 -2 -33 -21 -69 -41 -36 -21 -66 -39 -67 -39 -1 -1 9 -46
23 -100 14 -54 23 -105 20 -112 -8 -21 6 -16 44 16 42 37 46 37 55 3 3 -15 15
-40 27 -55 18 -27 19 -30 4 -53 -9 -14 -29 -34 -46 -46 l-30 -22 21 -33 c15
-24 18 -38 11 -51 -6 -10 -24 -73 -40 -140 -23 -92 -49 -161 -106 -280 -68
-144 -110 -243 -102 -243 2 0 25 34 52 76 48 75 49 76 52 44 6 -59 -34 -161
-105 -268 -37 -56 -72 -102 -77 -102 -5 0 -6 13 -3 29 3 15 2 41 -3 57 l-9 29
-7 -25 c-15 -50 -70 -143 -93 -159 l-24 -15 8 64 c11 90 10 108 -11 131 -16
18 -16 23 -4 42 58 91 120 243 120 295 0 19 -4 23 -20 19 -16 -4 -21 1 -26 21
-3 15 -7 31 -8 35 -1 5 -14 -3 -29 -17 -24 -22 -27 -23 -27 -6 0 41 65 185
106 235 36 45 64 105 64 140 0 5 -18 -9 -41 -30 -29 -28 -65 -90 -125 -210
-81 -162 -85 -167 -80 -119 7 71 37 153 94 253 48 84 97 199 89 208 -9 8 -78
-97 -108 -164 -18 -37 -45 -88 -62 -113 l-31 -44 -8 29 c-13 46 -1 86 42 143
44 59 58 111 41 148 -8 19 -8 47 1 113 l11 88 75 32 c41 18 76 30 78 28 2 -2
-7 -26 -21 -52 -13 -27 -23 -50 -22 -51 1 -2 24 23 51 54 27 31 68 73 91 92
42 35 81 95 67 104 -4 2 -36 12 -72 21 -36 8 -78 21 -93 27 -24 9 -31 8 -54
-13 -21 -20 -25 -21 -20 -6 4 10 7 22 7 27 0 4 21 17 46 29 l45 22 20 -25 20
-25 32 19 c18 10 58 28 89 40 32 12 61 27 65 34 5 8 51 21 103 30 52 9 109 20
125 25 53 16 73 11 30 -8z m-957 -91 c-1 -16 -4 -30 -7 -30 -3 0 -16 -3 -27
-6 -17 -5 -21 -1 -20 16 1 16 32 46 53 50 1 0 1 -13 1 -30z m907 -114 c-20
-24 -52 -56 -71 -71 l-34 -26 0 23 c0 13 4 28 8 35 9 14 126 93 131 88 2 -2
-13 -24 -34 -49z m-629 -101 c-16 -37 -117 -188 -161 -240 l-25 -30 26 75 c15
41 37 96 50 121 24 49 85 109 109 109 14 0 14 -4 1 -35z m655 -82 c-20 -38
-20 -38 -21 -9 0 16 8 34 17 42 26 18 27 11 4 -33z m-885 -80 c-8 -16 -22 -37
-31 -48 -15 -19 -16 -19 -4 5 16 32 40 70 45 70 3 0 -2 -12 -10 -27z m54 -348
l-59 -200 0 65 c-1 81 21 174 55 243 31 60 55 99 60 95 1 -2 -24 -93 -56 -203z
m853 70 c-3 -43 -12 -60 -24 -48 -14 14 0 85 15 80 6 -2 10 -17 9 -32z m-795
-252 c2 -12 -8 -33 -23 -49 l-26 -29 6 35 c11 58 16 71 28 67 7 -2 13 -13 15
-24z m-178 -140 c0 -65 -3 -93 -10 -83 -15 24 -22 89 -15 136 11 77 25 48 25
-53z m180 -30 c-1 -5 -5 -28 -9 -53 -8 -39 -6 -48 14 -72 l24 -28 -22 -63
c-17 -47 -33 -73 -66 -103 l-44 -39 6 47 c4 26 23 81 43 123 20 42 34 78 31
81 -2 3 -14 6 -26 7 -46 3 -13 107 34 107 8 0 15 -3 15 -7z m-174 -210 c10
-85 -3 -464 -20 -573 -33 -206 -54 -300 -72 -327 l-19 -28 -3 43 c-2 24 5 107
15 185 13 105 18 211 18 407 0 146 1 272 3 281 3 23 41 69 57 69 9 0 16 -19
21 -57z m192 -81 c13 -9 6 -72 -8 -72 -5 0 -15 -3 -23 -6 -11 -4 -14 0 -12 13
16 80 17 81 43 65z m-312 -94 c-4 -40 -20 -163 -36 -273 -53 -369 -60 -475
-29 -475 6 0 8 4 4 9 -3 5 -1 12 5 16 18 11 10 -22 -14 -58 -15 -22 -37 -87
-57 -169 -17 -73 -43 -164 -56 -203 -33 -91 -98 -216 -127 -244 l-22 -21 10
74 c6 41 18 82 27 93 25 28 31 126 11 165 -21 42 -21 187 1 313 51 297 89 472
110 502 12 18 25 33 28 33 4 0 -98 -735 -115 -823 -11 -54 11 -17 32 55 28 95
46 205 77 473 29 246 56 395 85 480 19 56 56 125 67 125 3 0 2 -33 -1 -72z
m343 -112 c6 -25 11 -64 11 -88 0 -71 -45 -114 -70 -68 -16 30 -27 24 -34 -20
-5 -31 -14 -45 -38 -60 -18 -11 -33 -18 -35 -16 -9 9 45 135 87 202 28 43 50
82 50 86 0 4 4 8 9 8 5 0 14 -20 20 -44z m-110 -25 c-31 -42 -35 -31 -7 18 13
23 24 35 26 26 2 -8 -7 -28 -19 -44z m271 -38 c-18 -66 -26 -71 -33 -21 -5 36
-3 46 15 61 29 24 33 15 18 -40z m-100 -217 c-15 -98 -51 -170 -160 -316 -51
-69 -94 -127 -96 -129 -2 -2 -11 2 -20 10 -21 17 -15 50 27 168 19 54 30 96
24 98 -37 13 -37 20 0 72 37 51 37 51 54 30 17 -21 17 -20 44 43 15 35 51 93
80 128 l52 65 3 -49 c2 -26 -2 -80 -8 -120z m-714 -1 c7 -18 -17 -97 -32 -102
-7 -2 -7 15 0 57 10 59 21 75 32 45z m28 -222 c-18 -180 -60 -467 -89 -601
-46 -213 -135 -431 -187 -458 -34 -18 -34 -16 -4 44 33 65 72 178 81 232 l7
45 -52 -50 c-31 -29 -50 -42 -45 -30 9 25 125 759 120 763 -12 12 -40 -79 -61
-201 -13 -78 -35 -207 -49 -287 -14 -80 -29 -185 -34 -235 -7 -73 -18 -113
-59 -210 -28 -67 -61 -128 -74 -138 l-23 -19 -5 43 c-5 39 -6 42 -16 24 -6
-11 -19 -45 -29 -75 -16 -51 -58 -110 -77 -110 -12 0 -2 49 53 253 49 180 74
313 67 358 -4 31 -52 -139 -78 -278 -23 -126 -50 -218 -102 -351 -36 -94 -42
-102 -61 -96 -12 4 -24 8 -25 9 -2 2 12 50 31 107 34 103 64 234 55 244 -6 5
-73 -185 -103 -290 -12 -42 -30 -73 -60 -105 -45 -48 -69 -50 -84 -9 -7 20
-13 13 -51 -62 -23 -47 -51 -97 -62 -113 -36 -50 -139 -88 -168 -62 -14 12
-23 8 -77 -33 -147 -113 -220 -168 -243 -183 -24 -16 -25 -17 -7 -37 24 -26
16 -53 -26 -84 -18 -13 -49 -37 -71 -53 l-39 -29 27 52 c18 35 26 67 26 101 0
61 20 87 129 170 129 99 135 120 12 38 -63 -42 -116 -75 -118 -73 -11 11 27
70 80 124 61 61 61 62 27 51 -19 -7 -59 -38 -89 -68 -52 -53 -127 -111 -144
-111 -5 0 -6 15 -2 33 3 18 -18 -17 -49 -78 -44 -89 -59 -131 -76 -220 -35
-187 -49 -238 -72 -262 -12 -13 -23 -21 -25 -19 -2 2 1 56 7 121 8 76 29 188
61 316 27 109 49 201 49 206 -1 16 -71 -184 -95 -272 -14 -49 -25 -108 -25
-129 0 -59 -30 -147 -49 -144 -24 5 -51 68 -51 121 0 26 13 102 29 170 17 67
40 167 51 222 34 157 75 257 127 315 25 27 50 50 56 50 7 0 20 -20 31 -45 l18
-45 27 42 c15 24 43 56 61 71 34 29 122 77 140 77 17 0 -31 -80 -58 -98 -29
-19 -38 -36 -47 -90 -7 -42 -6 -43 14 -30 13 8 23 28 27 56 6 38 12 47 63 81
31 21 85 53 120 71 l64 32 18 -23 17 -22 15 29 c8 16 22 45 30 66 l15 36 -55
-24 c-30 -13 -77 -36 -105 -50 -49 -25 -52 -25 -64 -9 -8 10 -15 21 -16 26 -2
4 -28 1 -58 -7 -30 -8 -58 -13 -62 -12 -5 2 3 20 18 41 14 21 24 41 21 43 -8
8 -73 -22 -122 -56 -25 -17 -45 -28 -45 -25 0 3 23 31 52 61 l51 54 -23 22
c-22 21 -22 22 -4 29 10 4 52 8 93 8 l73 1 -27 -36 c-15 -19 -25 -38 -22 -41
9 -8 127 59 121 68 -3 5 -16 9 -30 9 -55 0 -4 55 77 84 l53 18 43 -45 c24 -26
46 -60 49 -77 4 -16 10 -30 13 -30 4 0 25 13 47 30 l39 29 16 -21 16 -21 30
21 c22 15 33 18 47 10 13 -7 30 -5 62 7 43 16 97 14 109 -5 3 -5 0 -21 -6 -37
-6 -15 -14 -48 -19 -73 -8 -44 -8 -45 9 -23 10 12 26 52 35 88 22 88 71 190
104 216 l27 21 5 -61 5 -61 65 245 c35 135 67 245 70 245 3 0 13 -7 23 -14 12
-9 17 -28 17 -62 1 -47 1 -48 15 -24 8 14 20 57 26 97 7 39 21 82 32 95 18 23
19 22 13 -82 -3 -58 -23 -203 -46 -323 -22 -121 -40 -223 -40 -228 0 -5 6 -9
14 -9 20 0 32 56 77 365 35 241 40 287 30 328 -15 66 -14 70 10 57 25 -14 21
-18 42 50 9 30 39 100 66 155 42 84 51 96 56 78 4 -13 11 -23 14 -23 4 0 25
29 46 65 21 36 39 64 41 62 3 -3 -93 -676 -111 -785 -10 -54 11 -29 34 41 27
83 37 149 56 352 16 176 43 312 71 368 15 29 34 57 38 57 1 0 -3 -57 -10 -127z
m-2794 -95 c1 -355 24 -525 107 -783 98 -305 172 -473 400 -910 245 -471 305
-581 459 -840 181 -307 341 -619 385 -751 42 -130 47 -261 11 -339 -35 -76
-103 -133 -252 -209 -72 -37 -134 -75 -137 -83 -4 -9 14 -57 40 -108 49 -96
67 -179 50 -224 -9 -22 -11 -21 -60 40 -66 83 -163 233 -253 389 -76 133 -151
284 -381 765 -79 165 -166 337 -195 381 -39 61 -62 115 -94 215 -23 73 -78
228 -122 344 -168 441 -217 575 -271 740 -207 624 -246 1051 -122 1331 l24 54
62 0 c53 0 66 4 100 30 42 34 217 130 237 130 9 0 12 -41 12 -172z m2051 135
c-22 -40 -39 -56 -76 -69 -22 -7 -40 -12 -41 -11 -1 1 5 17 14 36 12 23 28 39
52 47 51 18 63 17 51 -3z m-2746 -125 c-13 -62 -55 -114 -55 -69 0 41 31 94
58 100 2 1 0 -14 -3 -31z m2530 -47 c-31 -30 -199 -91 -250 -91 -34 0 -32 28
3 41 93 37 221 78 247 78 l30 1 -30 -29z m-2706 -58 c1 -29 -19 -74 -30 -67
-13 7 -11 68 2 101 10 26 12 27 19 8 5 -11 9 -30 9 -42z m-193 -188 c-13 -131
-15 -132 -36 -27 -16 83 -13 110 16 139 14 14 27 23 29 21 2 -2 -2 -62 -9
-133z m-130 14 c-3 -34 -6 -87 -6 -118 -1 -45 -3 -52 -11 -37 -23 38 -67 173
-61 183 11 15 45 32 66 33 17 0 18 -6 12 -61z m2018 -153 c-27 -31 -124 -95
-124 -81 0 26 37 66 87 92 32 18 59 30 62 28 2 -2 -9 -20 -25 -39z m1226 25
c0 -5 -14 -23 -31 -40 l-31 -31 32 0 c28 0 31 -3 28 -26 -5 -43 -118 -102
-366 -191 -23 -9 -40 -18 -38 -21 3 -2 55 12 116 33 61 20 114 35 117 32 11
-11 -45 -70 -101 -108 -76 -51 -169 -79 -261 -79 -73 0 -143 16 -128 30 4 4
53 22 108 40 124 40 138 51 43 34 -40 -7 -91 -13 -114 -13 -43 -1 -104 16
-104 28 0 32 61 54 290 105 107 25 236 73 198 75 -27 2 -146 -26 -258 -59
-134 -41 -194 -47 -243 -27 -20 9 -37 20 -37 24 0 5 116 37 258 72 141 36 309
79 372 97 123 35 150 39 150 25z m720 -101 c0 -44 -2 -50 -21 -50 -22 0 -22
14 1 75 14 38 20 31 20 -25z m-2214 -29 c-25 -26 -66 -47 -66 -34 0 15 25 45
43 53 43 17 51 11 23 -19z m91 -26 c-15 -14 -35 -25 -44 -25 -19 0 -14 6 24
31 41 26 52 22 20 -6z m457 -84 c18 -7 18 -8 -5 -24 -38 -27 -66 -18 -53 17 7
17 27 19 58 7z m1086 -582 c-11 -38 -15 -43 -29 -34 -8 4 -6 16 4 36 21 39 36
38 25 -2z m-640 -425 c0 -4 -9 -22 -21 -41 -19 -30 -100 -83 -129 -83 -39 0
34 97 90 119 29 11 60 14 60 5z m-410 -212 l22 -18 -62 -57 c-33 -31 -67 -57
-73 -57 -15 0 -11 95 5 128 14 28 75 31 108 4z m-116 -214 c3 -13 6 -41 6 -62
0 -33 -7 -45 -42 -80 l-43 -40 -3 36 c-4 48 13 109 39 142 25 32 35 33 43 4z
m106 -245 c-1 -5 -7 -36 -14 -71 l-14 -64 24 6 c19 5 25 2 30 -20 13 -51 -33
-144 -71 -144 -19 0 -19 11 0 80 8 30 15 58 15 62 0 4 -20 -7 -45 -24 -25 -17
-47 -29 -50 -26 -3 3 2 29 12 57 22 65 114 182 113 144z m87 -290 c19 -51 22
-157 5 -202 -7 -20 -11 -12 -21 52 -7 42 -16 77 -20 77 -3 0 -17 -8 -30 -17
l-24 -16 6 53 c6 49 36 100 58 100 4 0 16 -21 26 -47z m89 -168 c8 -20 14 -70
15 -122 l1 -88 20 44 c19 42 21 44 34 26 45 -61 78 -222 72 -355 l-3 -75 -22
35 c-20 31 -84 216 -97 280 -3 14 -19 32 -35 42 -37 20 -56 81 -47 151 14 99
36 122 62 62z m-616 -1516 c0 -3 12 -9 28 -12 18 -4 37 -21 60 -56 17 -27 32
-54 32 -59 0 -5 -12 -17 -26 -27 -25 -16 -26 -16 -58 18 -21 22 -39 57 -49 94
-21 75 -22 95 -2 69 8 -11 15 -23 15 -27z m220 26 c11 -13 10 -14 -4 -9 -9 3
-16 10 -16 15 0 13 6 11 20 -6z m30 -253 c0 -14 -24 -28 -97 -58 -54 -21 -101
-40 -105 -42 -18 -8 -6 17 25 52 50 57 177 91 177 48z"/>
<path d="M4161 12343 c-31 -26 -38 -93 -17 -167 15 -50 15 -69 5 -156 -15
-116 -7 -143 46 -166 19 -8 60 -15 91 -17 53 -2 58 0 85 33 56 67 59 130 9
212 -14 23 -16 46 -12 128 l5 100 -49 22 c-70 31 -133 35 -163 11z m127 -73
c17 -11 32 -23 32 -28 0 -5 -14 -21 -30 -37 -41 -39 -64 -26 -68 39 -4 54 11
59 66 26z m27 -225 c28 -27 30 -42 14 -98 -10 -36 -12 -38 -42 -31 -43 9 -44
9 -57 50 -10 31 -9 41 6 70 22 40 46 43 79 9z"/>
<path d="M7749 12333 c-46 -42 -149 -239 -149 -287 0 -43 21 -106 39 -115 9
-5 41 -11 71 -15 54 -7 56 -6 91 31 48 50 59 73 59 122 0 34 -7 49 -44 90 -55
62 -64 86 -40 112 23 26 29 24 70 -16 47 -47 65 -47 53 3 -5 20 -9 40 -9 44 0
3 -12 20 -26 37 -34 41 -64 40 -115 -6z m21 -273 c0 -52 -4 -58 -49 -62 -19
-2 -26 3 -31 22 -9 32 3 56 38 74 40 22 42 21 42 -34z"/>
<path d="M6697 12321 c-51 -33 -82 -84 -97 -159 l-9 -47 82 -82 81 -82 -24
-26 c-13 -14 -28 -25 -33 -25 -5 0 -31 16 -57 35 -26 19 -52 35 -58 35 -12 0
-32 -53 -32 -85 0 -12 9 -34 21 -49 40 -51 153 -27 214 46 62 74 98 209 87
333 -4 47 -8 53 -58 93 -29 23 -57 42 -61 42 -5 0 -30 -13 -56 -29z m93 -102
c0 -59 -39 -119 -79 -119 -5 0 -12 15 -16 33 -4 17 -9 40 -12 50 -3 12 8 30
32 53 30 28 40 32 56 24 12 -7 19 -21 19 -41z"/>
<path d="M8480 11943 c-8 -3 -57 -46 -107 -96 l-93 -92 0 -93 c0 -86 -2 -93
-17 -87 -138 57 -266 44 -358 -37 -77 -68 -111 -165 -85 -243 18 -55 86 -118
154 -144 73 -27 104 -27 206 4 46 14 85 23 87 21 7 -6 -18 -88 -38 -127 -10
-20 -41 -65 -70 -100 -28 -35 -58 -77 -66 -93 -14 -28 -14 -30 7 -46 30 -22
132 -57 191 -65 l46 -7 6 69 c4 37 7 93 7 123 0 44 9 74 48 157 26 56 50 102
53 103 4 0 9 -17 13 -37 15 -93 94 -208 159 -232 142 -54 340 123 312 277 -16
86 -95 168 -188 193 -52 14 -125 -4 -173 -42 -20 -16 -38 -29 -40 -29 -4 0
-44 77 -44 85 0 8 87 46 184 80 101 36 156 86 156 143 -1 105 -54 224 -121
269 -58 38 -181 63 -229 46z m-110 -455 c0 -36 -2 -39 -16 -27 -13 11 -44 61
-44 72 0 2 14 2 30 -1 28 -4 30 -7 30 -44z"/>
<path d="M7551 11767 c-12 -19 -21 -45 -21 -58 0 -36 -11 -44 -60 -47 -25 -1
-53 -5 -63 -8 -22 -7 -44 -49 -48 -94 -4 -33 -2 -35 41 -52 25 -9 54 -17 66
-17 11 -1 28 -7 38 -14 17 -13 17 -17 -18 -82 -41 -77 -44 -95 -17 -95 10 0
33 -3 50 -6 28 -6 32 -4 46 30 10 24 13 50 9 78 l-7 41 44 -6 c24 -3 59 -9 76
-13 28 -6 37 -2 63 26 35 38 37 63 10 108 -25 41 -43 48 -92 35 -34 -9 -38 -8
-38 8 0 9 11 26 26 36 28 21 45 77 33 110 -9 26 -31 38 -81 47 -33 6 -38 4
-57 -27z"/>
<path d="M6574 11732 c-12 -4 -34 -23 -50 -42 -16 -19 -48 -51 -71 -72 -52
-49 -62 -82 -32 -114 12 -13 34 -24 48 -24 49 0 52 -10 24 -88 -14 -40 -24
-74 -22 -76 2 -3 26 -6 53 -8 l49 -3 20 60 c11 33 21 62 23 64 2 3 32 9 67 16
l62 11 3 52 c2 41 0 52 -12 52 -22 0 -58 52 -81 118 -21 59 -35 68 -81 54z"/>
<path d="M9920 11362 c-53 -34 -96 -75 -121 -117 -15 -23 -19 -50 -19 -114 l0
-85 51 -47 50 -46 -16 -39 c-9 -22 -19 -42 -23 -46 -5 -5 -26 22 -47 60 -79
134 -147 186 -246 186 -45 1 -65 -5 -105 -29 -61 -39 -109 -101 -129 -170 -38
-130 34 -220 197 -247 89 -14 123 -6 212 52 42 28 80 50 85 50 14 0 -9 -101
-39 -167 -16 -35 -61 -113 -101 -174 -41 -63 -68 -114 -63 -118 5 -5 59 -24
121 -43 l111 -35 4 171 c4 181 14 224 67 292 23 29 22 30 51 -61 31 -96 54
-138 90 -169 28 -23 40 -26 107 -26 42 0 94 6 117 12 57 17 119 82 135 141 16
54 10 201 -8 234 -12 24 -117 63 -168 63 -18 0 -65 -13 -105 -29 -110 -43
-133 -45 -147 -15 -10 22 -8 26 22 44 17 11 63 32 100 46 115 44 157 107 157
232 0 42 -6 56 -39 98 -21 27 -60 65 -87 84 -40 28 -59 35 -109 38 -53 3 -65
0 -105 -26z"/>
<path d="M7866 10179 c-3 -30 -8 -85 -11 -124 -11 -117 -43 -223 -65 -210 -5
3 -25 36 -45 73 -75 141 -130 192 -207 192 -43 0 -144 -48 -226 -108 l-64 -47
5 -72 c9 -115 60 -208 134 -239 64 -28 178 -17 291 28 29 11 55 19 57 16 2 -2
-1 -20 -7 -41 -9 -29 -17 -37 -42 -43 -55 -11 -111 -51 -171 -121 l-58 -68 6
-66 c13 -156 95 -238 238 -239 159 0 275 125 267 291 l-3 63 -57 44 c-37 28
-58 51 -58 64 0 20 30 78 40 78 3 0 18 -30 34 -66 53 -118 146 -185 267 -192
52 -3 74 0 107 17 140 71 145 315 9 425 -36 29 -44 31 -120 31 -91 0 -123 -12
-195 -70 -24 -19 -55 -35 -68 -35 -22 0 -24 3 -18 28 13 52 24 72 62 114 46
52 78 96 121 167 31 51 31 54 15 72 -26 28 -131 76 -186 84 l-46 7 -6 -53z"/>
<path d="M9337 9717 c-3 -12 -16 -97 -28 -189 -13 -93 -26 -168 -30 -168 -4 0
-19 21 -34 48 -67 116 -142 165 -250 164 -104 -1 -172 -38 -212 -115 -14 -28
-42 -145 -43 -178 0 -23 100 -130 137 -145 18 -8 61 -14 95 -14 54 0 70 5 120
36 32 19 73 38 92 41 l34 5 -14 -73 c-8 -41 -14 -77 -14 -81 0 -5 -6 -8 -12
-8 -21 0 -136 -57 -174 -86 -132 -101 -103 -288 58 -370 78 -39 136 -42 203
-10 87 43 135 127 135 235 0 68 -22 119 -79 185 -36 42 -41 53 -35 80 9 44 23
68 37 63 15 -4 59 -64 100 -137 43 -74 78 -92 175 -93 105 -1 164 31 225 123
20 29 22 105 5 162 -15 50 -75 118 -130 147 l-43 23 -144 -45 -143 -46 6 42
c11 67 38 116 119 217 42 52 77 100 77 105 0 16 -93 73 -136 83 -92 23 -92 23
-97 -1z"/>
<path d="M8795 8043 c-4 -43 -13 -105 -21 -138 -15 -63 -63 -166 -80 -172 -6
-2 -16 20 -23 49 -27 106 -80 187 -144 219 -33 17 -53 21 -107 17 -208 -15
-328 -188 -259 -374 12 -31 33 -70 48 -86 25 -28 32 -31 118 -35 82 -5 96 -3
146 20 31 14 77 40 102 57 26 18 49 30 52 27 9 -10 -35 -95 -55 -106 -11 -6
-49 -15 -85 -20 -35 -5 -74 -15 -86 -23 -45 -27 -81 -150 -81 -275 0 -50 1
-52 53 -94 77 -62 148 -91 234 -97 64 -4 79 -1 128 22 84 41 127 114 141 235
l6 59 44 -18 c117 -51 169 -48 244 11 73 58 105 118 105 199 -1 115 -42 197
-119 237 -62 32 -182 15 -298 -44 -33 -16 -48 -19 -48 -11 0 29 52 121 114
202 74 97 102 145 89 156 -4 3 -46 17 -93 29 -47 12 -92 24 -102 27 -14 4 -17
-7 -23 -73z m19 -547 c12 -35 16 -64 12 -83 l-8 -28 -34 37 c-19 21 -34 48
-34 60 1 84 38 92 64 14z"/>
<path d="M9590 7615 c-13 -41 -25 -75 -26 -75 -2 0 -25 11 -51 25 -50 27 -77
27 -120 -1 -16 -10 -23 -24 -23 -47 0 -41 11 -55 78 -96 28 -18 52 -36 52 -39
0 -4 -12 -30 -27 -57 -35 -68 -28 -100 26 -116 51 -15 68 -8 87 37 12 29 13
42 4 65 -7 15 -9 36 -6 47 9 27 38 37 52 18 11 -16 68 -22 98 -10 21 8 31 66
16 94 -6 12 -31 31 -55 41 -24 11 -47 24 -50 30 -4 5 5 30 19 55 33 59 33 82
0 94 -44 17 -50 12 -74 -65z"/>
<path d="M9342 7068 c-45 -32 -72 -92 -72 -160 0 -54 1 -55 39 -72 48 -22 67
-58 50 -98 -15 -38 -65 -39 -99 -3 -28 29 -36 24 -45 -27 -7 -37 -6 -38 36
-58 24 -11 50 -20 58 -20 20 0 76 44 106 84 36 47 85 196 85 257 0 63 -13 87
-55 105 -47 19 -65 18 -103 -8z m73 -74 c21 -51 19 -66 -13 -97 l-29 -27 -26
24 c-15 14 -27 35 -27 48 0 21 55 88 72 88 4 0 15 -16 23 -36z"/>
<path d="M5792 12300 c-96 -59 -147 -241 -107 -378 13 -43 20 -52 39 -52 13 0
43 -3 68 -6 l44 -6 43 57 c42 56 43 59 32 96 -16 51 -48 86 -91 97 -35 8 -35
9 -38 70 l-3 61 36 -6 c20 -3 50 -19 66 -34 17 -16 35 -29 39 -29 9 0 -6 83
-20 110 -11 21 -41 40 -62 40 -7 0 -28 -9 -46 -20z m46 -277 c43 -64 32 -92
-41 -100 l-47 -6 0 36 c0 24 9 46 26 66 32 38 38 38 62 4z"/>
<path d="M5719 11713 c-51 -56 -109 -134 -133 -180 -16 -32 -16 -32 26 -93
l42 -61 -18 -47 c-10 -26 -20 -64 -23 -84 l-5 -38 45 0 46 0 6 58 c12 106 14
111 53 128 64 26 72 40 72 115 0 63 -38 220 -59 242 -4 4 -28 -14 -52 -40z"/>
<path d="M4966 12167 c-61 -160 -76 -342 -35 -424 17 -35 35 -53 63 -67 46
-23 61 -16 93 40 48 84 68 286 40 392 -11 41 -16 45 -78 72 l-67 28 -16 -41z"/>
<path d="M4814 12148 c-38 -74 -56 -299 -33 -424 13 -71 21 -82 41 -52 35 54
61 277 47 403 -12 112 -26 130 -55 73z"/>
<path d="M4873 11520 c-52 -21 -48 -76 13 -155 29 -38 26 -40 -25 -25 -41 12
-65 1 -91 -43 -11 -18 -20 -35 -20 -39 0 -16 71 -48 108 -48 22 0 43 -4 46 -9
3 -5 -5 -46 -19 -91 -14 -46 -23 -85 -22 -87 2 -2 30 2 61 9 l58 11 -7 71 c-4
39 -8 75 -9 81 0 5 26 14 59 20 50 9 60 14 66 35 14 51 10 68 -18 74 -16 4
-45 12 -65 17 l-38 10 0 89 0 90 -37 -1 c-21 0 -48 -4 -60 -9z"/>
<path d="M6670 7956 c-25 -7 -74 -25 -109 -39 -80 -33 -202 -57 -292 -57 -62
0 -70 -2 -85 -25 -9 -14 -14 -29 -10 -32 14 -15 126 -14 213 1 179 31 354 101
366 146 6 24 -13 25 -83 6z"/>
<path d="M5886 6825 c-26 -24 -39 -68 -13 -47 13 11 51 72 44 72 -2 0 -16 -11
-31 -25z"/>
<path d="M5769 6413 c-13 -16 -12 -17 4 -4 9 7 17 15 17 17 0 8 -8 3 -21 -13z"/>
<path d="M6268 6598 c-14 -18 -30 -43 -37 -56 -11 -21 -10 -22 13 -16 22 5 26
2 34 -28 8 -30 9 -25 16 45 4 43 6 81 3 83 -2 3 -15 -10 -29 -28z"/>
<path d="M5151 6494 c-28 -23 -71 -90 -71 -110 0 -13 51 40 82 84 36 52 32 62
-11 26z"/>
<path d="M5372 6455 c-28 -30 -65 -61 -82 -70 -24 -12 -30 -22 -30 -48 l1 -32
32 36 c103 118 139 160 135 164 -2 3 -28 -20 -56 -50z"/>
<path d="M5221 6425 c-46 -48 -89 -120 -79 -131 2 -2 26 15 53 37 36 30 53 53
66 92 10 28 16 53 15 55 -2 1 -26 -23 -55 -53z"/>
<path d="M5177 6222 c-55 -55 -67 -73 -67 -100 0 -47 34 -45 50 3 6 19 16 33
20 30 5 -3 14 3 19 13 13 25 52 122 48 122 -1 0 -33 -30 -70 -68z"/>
<path d="M5254 6193 c-21 -14 -43 -29 -47 -33 -10 -9 18 -68 44 -92 17 -17 19
-16 38 11 22 30 30 124 13 135 -5 3 -26 -7 -48 -21z"/>
<path d="M5143 6008 c-26 -27 -62 -105 -63 -133 0 -15 9 -11 44 24 l45 44 3
-49 3 -49 38 74 c20 40 37 82 37 92 0 15 -9 9 -37 -23 l-38 -41 -5 42 -5 43
-22 -24z"/>
<path d="M5062 5625 c-17 -37 -14 -45 4 -12 9 16 14 31 11 33 -2 2 -9 -7 -15
-21z"/>
<path d="M5032 5555 c-17 -37 -14 -45 4 -12 9 16 14 31 11 33 -2 2 -9 -7 -15
-21z"/>
<path d="M2906 3689 c-15 -12 -25 -23 -22 -26 7 -7 66 26 66 37 0 16 -15 12
-44 -11z"/>
<path d="M3146 3670 c-14 -17 -30 -47 -36 -68 -10 -39 -13 -69 -5 -61 7 8 75
159 71 159 -2 0 -16 -14 -30 -30z"/>
<path d="M2830 3620 c-14 -11 -20 -20 -14 -20 7 0 22 9 35 20 31 25 12 26 -21
0z"/>
<path d="M3372 3518 c-11 -29 -23 -64 -26 -78 -14 -52 24 13 40 68 21 71 11
78 -14 10z"/>
<path d="M3236 3456 c-19 -38 -31 -78 -33 -115 l-3 -56 35 95 c43 115 44 161
1 76z"/>
<path d="M2905 3476 c-53 -24 -165 -111 -165 -127 0 -5 7 -9 15 -9 8 0 15 -4
15 -10 0 -20 15 -9 38 25 15 23 41 44 75 59 34 15 58 34 70 55 22 37 17 38
-48 7z"/>
<path d="M3024 3371 c-9 -22 -17 -41 -18 -41 -1 0 -24 7 -50 16 l-48 17 -22
-27 c-25 -31 -86 -52 -97 -34 -9 15 -9 14 -32 -35 l-17 -39 32 7 c18 4 41 9
51 11 18 6 24 -11 7 -21 -27 -17 -5 -21 31 -7 42 16 42 16 15 25 -33 11 -34
44 -2 59 39 17 56 4 56 -41 0 -22 -4 -51 -9 -64 l-9 -24 105 -7 c59 -3 109 -4
111 -1 3 3 -3 23 -13 46 -16 33 -22 39 -39 34 -12 -4 -36 -9 -55 -12 -38 -6
-38 -12 5 107 26 71 24 96 -2 31z"/>
<path d="M2195 1671 c-10 -18 21 -59 72 -94 26 -18 59 -42 74 -55 39 -32 87
-136 95 -204 l7 -57 -32 12 c-26 10 -31 17 -31 45 0 24 -9 42 -29 63 -37 36
-57 37 -69 2 -7 -23 -4 -36 16 -71 53 -93 10 -44 -88 98 -56 83 -104 149 -107
147 -7 -8 66 -216 102 -286 65 -131 157 -197 243 -175 52 13 64 44 64 163 0
159 -64 316 -158 387 -27 21 -50 29 -94 32 -37 3 -60 0 -65 -7z"/>
<path d="M3351 4207 c-30 -11 -49 -23 -42 -25 18 -6 89 18 102 35 15 17 6 15
-60 -10z"/>
<path d="M2942 7970 c-84 -183 -190 -407 -238 -503 -53 -104 -84 -201 -84
-262 l0 -30 24 36 c86 127 261 527 316 722 28 102 20 119 -18 37z"/>
<path d="M3875 7594 c-31 -27 -33 -31 -9 -15 28 18 62 51 53 51 -2 0 -22 -16
-44 -36z"/>
<path d="M3980 7575 c0 -8 4 -15 9 -15 5 0 14 7 21 15 10 13 9 15 -9 15 -12 0
-21 -6 -21 -15z"/>
<path d="M3723 7361 c-73 -59 -323 -317 -284 -294 63 38 256 192 310 247 36
36 52 60 48 70 -9 24 -20 20 -74 -23z"/>
<path d="M3312 7165 c-17 -14 -54 -53 -83 -88 -49 -58 -47 -56 34 23 48 46 87
86 87 87 0 7 -11 1 -38 -22z"/>
<path d="M3355 6996 c-46 -36 -71 -40 -88 -16 -14 21 -15 20 -34 -12 -24 -39
-124 -159 -174 -208 l-36 -35 33 -22 33 -21 47 61 c26 34 95 110 153 170 58
59 103 107 100 107 -2 0 -17 -11 -34 -24z"/>
<path d="M3060 6876 c-43 -47 -48 -55 -22 -37 32 22 88 88 81 95 -2 2 -29 -24
-59 -58z"/>
<path d="M2811 6595 c-104 -114 -149 -177 -175 -247 -9 -25 -39 -75 -65 -110
-50 -66 -86 -127 -78 -134 9 -9 123 116 210 231 120 158 193 235 224 235 14 0
23 -6 23 -15 0 -20 16 -19 24 1 8 22 8 24 -9 24 -16 0 -47 53 -51 89 -2 13 -4
24 -6 25 -2 2 -45 -43 -97 -99z"/>
<path d="M4183 5649 c-126 -83 -139 -94 -99 -85 33 8 161 92 195 130 14 14 22
26 19 26 -3 0 -55 -32 -115 -71z"/>
<path d="M3557 5613 c-13 -21 -29 -49 -36 -63 l-12 -25 18 24 c28 38 65 101
59 101 -3 0 -16 -17 -29 -37z"/>
<path d="M3450 5595 c-7 -9 -10 -18 -7 -21 3 -3 10 4 17 15 13 25 8 27 -10 6z"/>
<path d="M4213 5522 c-45 -26 -80 -48 -78 -50 10 -10 104 32 133 59 19 17 32
32 30 34 -1 1 -40 -18 -85 -43z"/>
<path d="M3320 5408 c-102 -124 -113 -140 -70 -104 44 36 165 197 148 196 -2
0 -37 -41 -78 -92z"/>
<path d="M3560 5450 c-12 -16 -19 -30 -16 -30 2 0 14 14 26 30 12 17 19 30 16
30 -2 0 -14 -13 -26 -30z"/>
<path d="M3415 5238 c-24 -37 -25 -40 -6 -23 25 22 45 54 38 61 -2 2 -17 -15
-32 -38z"/>
<path d="M3022 5102 c-83 -78 -105 -109 -54 -77 52 33 151 139 140 150 -2 3
-41 -30 -86 -73z"/>
<path d="M3226 5145 c-9 -26 -7 -32 5 -12 6 10 9 21 6 23 -2 3 -7 -2 -11 -11z"/>
<path d="M3217 5083 c-9 -9 -9 -53 1 -53 32 1 52 15 52 36 0 18 -5 24 -23 24
-13 0 -27 -3 -30 -7z"/>
<path d="M3174 5006 c-10 -8 -16 -17 -13 -20 3 -3 14 3 24 14 21 23 17 26 -11
6z"/>
<path d="M2361 4930 c-33 -34 -61 -66 -61 -72 0 -5 -27 -46 -60 -90 -59 -78
-74 -118 -45 -118 37 0 6 -34 -112 -121 -71 -52 -164 -125 -207 -164 -44 -38
-108 -94 -143 -123 -51 -43 -63 -58 -63 -82 0 -26 4 -30 28 -30 28 0 64 21
172 100 30 22 72 45 93 52 21 6 37 18 37 26 0 8 54 70 119 136 68 69 122 133
126 148 5 20 15 28 41 32 19 4 34 11 34 16 0 4 23 33 51 64 51 56 95 88 138
101 l24 7 -23 -36 c-12 -21 -21 -39 -19 -41 2 -2 25 16 51 38 l47 42 -83 88
-83 88 -62 -61z"/>
<path d="M3095 4942 c-34 -21 -60 -50 -53 -58 10 -9 53 14 82 45 34 35 19 42
-29 13z"/>
<path d="M3000 4930 c-6 -11 -8 -20 -6 -20 3 0 10 9 16 20 6 11 8 20 6 20 -3
0 -10 -9 -16 -20z"/>
<path d="M2935 4833 c-22 -26 -33 -43 -25 -38 30 18 110 77 110 81 0 2 -10 4
-22 4 -15 -1 -38 -18 -63 -47z"/>
<path d="M2419 4691 c-13 -11 -22 -22 -19 -24 3 -3 19 6 35 19 17 13 25 24 19
24 -7 0 -22 -9 -35 -19z"/>
<path d="M2274 4588 l-19 -23 23 19 c21 18 27 26 19 26 -2 0 -12 -10 -23 -22z"/>
<path d="M3400 4424 c-181 -54 -226 -64 -363 -83 -78 -12 -155 -25 -172 -30
l-30 -9 39 -1 c134 -3 577 96 620 139 14 14 3 12 -94 -16z"/>
<path d="M2230 4146 c0 -30 -15 -42 -63 -51 -39 -8 -63 -35 -53 -61 3 -8 14
-14 25 -14 27 0 33 -13 21 -45 -17 -45 6 -18 66 76 55 87 57 92 39 105 -27 20
-35 17 -35 -10z"/>
<path d="M2388 3930 c-33 -18 -88 -76 -88 -93 0 -4 14 -4 32 0 25 5 30 3 26
-8 -4 -8 -14 -32 -23 -54 l-17 -40 52 50 51 50 -28 5 -28 6 28 18 c24 16 57
63 57 81 0 10 -25 4 -62 -15z"/>
<path d="M2070 3794 c-36 -64 -67 -121 -69 -126 -2 -6 51 34 118 88 66 54 121
102 121 106 0 13 -39 19 -59 9 -34 -19 -49 -14 -43 14 2 14 3 25 1 25 -2 0
-33 -52 -69 -116z"/>
<path d="M2225 3788 c-33 -22 -75 -54 -93 -71 -32 -30 -33 -35 -28 -81 3 -27
7 -51 9 -53 3 -2 25 6 50 18 45 22 45 22 24 39 -21 17 -21 18 -2 46 10 16 38
53 63 82 25 29 43 54 41 56 -2 2 -31 -14 -64 -36z"/>
<path d="M1870 3755 c-27 -29 -46 -135 -25 -135 31 0 80 97 71 136 -8 30 -17
30 -46 -1z"/>
<path d="M1972 3614 c-25 -49 -62 -169 -61 -198 0 -19 1 -19 10 4 6 14 15 47
21 73 9 43 15 51 59 76 l49 28 -29 27 -29 28 -20 -38z"/>
<path d="M2060 3438 c-32 -51 -52 -132 -44 -173 10 -57 31 -25 49 75 27 151
27 150 -5 98z"/>
<path d="M695 870 c-18 -39 -17 -42 0 -101 17 -54 20 -59 32 -44 11 17 13 16
23 -9 5 -15 17 -59 25 -99 19 -89 29 -101 59 -64 26 32 32 33 39 8 2 -10 15
-24 27 -31 22 -12 23 -12 18 38 -4 42 -13 59 -55 108 -60 69 -83 112 -83 152
0 25 -43 82 -62 82 -3 0 -13 -18 -23 -40z"/>
<path d="M450 829 c0 -51 56 -151 151 -268 48 -60 148 -197 223 -306 137 -199
158 -218 141 -127 -14 80 -105 213 -274 405 -86 97 -139 176 -147 219 -9 45
-26 70 -63 91 l-31 18 0 -32z"/>
<path d="M920 384 c29 -57 90 -130 90 -108 0 12 -47 82 -89 130 l-33 39 32
-61z"/>
<path d="M1059 216 c19 -20 37 -33 40 -31 8 9 -35 60 -55 63 -15 3 -11 -4 15
-32z"/>
</g>
</svg>
